<?xml version="1.0" ?>
<!-- Uploaded to: SVG Repo, www.svgrepo.com, Generator: SVG Repo Mixer Tools -->
<svg width="800px" height="800px" viewBox="0 0 512 512" id="Layer_1" version="1.1" xml:space="preserve" xmlns="http://www.w3.org/2000/svg" xmlns:xlink="http://www.w3.org/1999/xlink">
<style type="text/css">
	.st0{fill:#4CC3F2;}
	.st1{fill:#CFF1FF;}
	.st2{fill:#FFFFFF;}
	.st3{fill:#0A557F;}
</style>
<g>
<polygon class="st0" points="331.3,154.2 148.8,336.7 142.3,406.9 110.8,438.4 100.2,427.8 127.8,400.1 129.7,380.6 59.5,450.7    96.7,487.9 174.6,383.1 177.7,350.3 299.3,228.7 304.6,234 336.4,202.2 331.1,196.9 352.5,175.4  "/>
<polygon class="st1" points="254.8,294.4 275.2,339 264,350.1 243.6,305.6  "/>
<path class="st1" d="M230.9,148.2l11.2-11.2l23.9,23.9l-11.2,11.2c-2.8,2.8-6.5,4.2-10.4,4l-17.5-17.5   C226.7,154.7,228.1,150.9,230.9,148.2z"/>
<path class="st1" d="M175.3,251.6l-17.5,17.5l-23.9-23.9l17.5-17.5c2.8-2.8,6.5-4.2,10.4-4l17.5,17.5   C179.5,245.1,178.1,248.9,175.3,251.6z"/>
<rect class="st1" height="15" transform="matrix(0.7071 -0.7071 0.7071 0.7071 -81.8632 202.1611)" width="62.1" x="172" y="192.4"/>
<rect class="st2" height="20.9" transform="matrix(0.7072 -0.7071 0.7071 0.7072 -91.5108 225.4219)" width="30" x="211.4" y="212.7"/>
<rect class="st1" height="15" transform="matrix(0.7071 -0.7071 0.7071 0.7071 98.1826 318.8892)" width="37.4" x="415.3" y="33.4"/>
<path class="st3" d="M394.3,48.9l10.6,10.6L255,209.4l-14.8-14.8l3.5-3.5c8,0.4,15.9-2.6,21.7-8.4l21.8-21.8l-45.1-45.1l-21.8,21.8   c-5.8,5.8-8.8,13.7-8.4,21.7l-49.4,49.4c-8-0.4-15.9,2.6-21.7,8.4l-28.1,28.1l45.1,45.1l28.1-28.1c5.8-5.8,8.8-13.7,8.4-21.7   l3.5-3.5l14.8,14.8l-78.1,78.1l-2.6,27.2l-93.6,93.6l60.1,60.1l87.4-117.5c11.2-2.4,20.6-7.3,27.5-14.2c5-5,8.6-10.9,10.7-17.7   c3.5-11.4,2-23.5-3.8-32.3l12.1-12.1l27.1,59.1l33.8-33.8l-27.1-59.1l43.8-43.8l-10.6-10.6L177.7,350.3l-3.1,32.8L96.7,487.9   l-37.2-37.2l70.2-70.2l-1.8,19.5l-27.6,27.6l10.6,10.6l31.5-31.5l6.6-70.2l182.5-182.5l21.2,21.2l-21.5,21.5l10.6,10.6l32.1-32.1   l-10.6-10.6l41.4-41.4l-21.2-21.2l32.2-32.2l10.6,10.6L473.7,33L441.9,1.2L394.3,48.9z M230.9,148.2l11.2-11.2l23.9,23.9   l-11.2,11.2c-2.8,2.8-6.5,4.2-10.4,4l-17.5-17.5C226.7,154.7,228.1,150.9,230.9,148.2z M179.3,241.2c0.2,3.9-1.2,7.6-4,10.4   l-17.5,17.5l-23.9-23.9l17.5-17.5c2.8-2.8,6.5-4.2,10.4-4L179.3,241.2z M254.8,294.4l20.4,44.6L264,350.1l-20.4-44.6L254.8,294.4z    M192.1,357.1l17-17c2,4.8,2.3,11,0.5,16.9c-1.7,5.5-6.4,14.4-19.3,19.4L192.1,357.1z M186.4,227.1l-10.6-10.6l43.9-43.9l10.6,10.6   L186.4,227.1z M244.4,220l-21.2,21.2l-14.8-14.8l21.2-21.2L244.4,220z M353.1,153.7l-10.6-10.6l30.2-30.2l10.6,10.6L353.1,153.7z    M452.5,33l-26.4,26.4l-10.6-10.6l26.4-26.4L452.5,33z"/>
<rect class="st3" height="15" transform="matrix(0.7071 -0.7071 0.7071 0.7071 -60.3511 290.4842)" width="15" x="313" y="210.6"/>
<rect class="st2" height="15" transform="matrix(0.7071 -0.7071 0.7071 0.7071 -291.2509 194.8443)" width="15" x="82.1" y="441.5"/>
<rect class="st3" height="15" transform="matrix(0.7071 -0.7071 0.7071 0.7071 -70.7739 336.4148)" width="67.3" x="337.1" y="246.1"/>
<rect class="st3" height="15" transform="matrix(0.7071 -0.7071 0.7071 0.7071 -110.4808 319.9667)" width="15" x="323.5" y="285.9"/>
<rect class="st3" height="15" transform="matrix(0.7071 -0.7071 0.7071 0.7071 57.7883 239.7759)" width="67.3" x="284.7" y="42.6"/>
<rect class="st3" height="15" transform="matrix(0.7071 -0.7071 0.7071 0.7071 18.0694 223.3131)" width="15" x="271.1" y="82.3"/>
</g>
</svg>