<?xml version="1.0" encoding="utf-8"?>
<!-- Uploaded to: SVG Repo, www.svgrepo.com, Generator: SVG Repo Mixer Tools -->
<svg width="800px" height="800px" viewBox="-99.21 0 445.582 445.582" xmlns="http://www.w3.org/2000/svg"><defs><style>.a{fill:#ffffff;}.b{fill:#3d8dcc;}.c{fill:#645d5c;}.d{fill:#bdbdbd;}.e{fill:#211715;}.f{fill:#febe69;}.g{fill:#908b8a;}</style></defs><path class="a" d="M104.5,48.618a4.526,4.526,0,0,1,3.291-1.149,4.2,4.2,0,0,1,3.742,2.153c1.249,2.243,1.133,6.34.234,8.863a13.681,13.681,0,0,1-4.113,6.452,4.99,4.99,0,0,1-3.864,1.052l-.369-.068a29.3,29.3,0,0,1-1.377,3.574c-1.059,2.746-7.014,12.618-14.29,15.794l.121,2.132c.058,1.019.235,2.621.339,4.062,0,0,.5.26,1.187.613-.054,1.293-.118,3.044-.191,5.154a56.839,56.839,0,0,1-16.586,2.756A31.608,31.608,0,0,1,57.95,96.6c-.063-2.3-.136-4.456-.211-6.191l2.268-1.824a29.807,29.807,0,0,0,.29-4.8,27.993,27.993,0,0,1-6.86-6.3,34.427,34.427,0,0,1-6.348-12.424,4.891,4.891,0,0,1-4.147-1.105,13.678,13.678,0,0,1-3.918-6.572c-.823-2.548-.815-6.647.5-8.852A4.2,4.2,0,0,1,43.33,46.5a4.533,4.533,0,0,1,3.255,1.248S42,21.642,75.461,21.642,104.5,48.618,104.5,48.618Z"/><path class="a" d="M177.786,424.705a43.172,43.172,0,0,1,1.182-8.669l-25.391,9.376c-3.706,1.369-7.608,2.76-11.516,2.18s-7.719-3.87-7.405-7.809a10.517,10.517,0,0,1,2.141-4.954c4.789-6.962,11.435-12.4,17.2-18.569a50.958,50.958,0,0,0,11.9-.077c2.512-.309,6.628-1.721,8.628-3.388l.518-.25q.047,2.553.1,4.982c6.731,3.24,13.4,4.308,22.328,4.518a27.546,27.546,0,0,0,4.547-.269c.33,1.7.521,2.686.521,2.686.89,4.583,2.214,10.085,2.847,15.972a44.973,44.973,0,0,1-.347,12.052c-.654,3.963-2.811,7.912-6.548,9.868-4.935,2.584-11.553.929-15.436-2.92s-5.357-9.391-5.265-14.686Z"/><path class="a" d="M38.1,437.194a96.971,96.971,0,0,0,7.852-7.842,29.218,29.218,0,0,0,3.477-4.206c3.5-5.513,3.393-9.873,1.1-20.076a92.877,92.877,0,0,1-10.232.142,42.026,42.026,0,0,1-8-1.026C30.9,406.48,29.966,408,29.966,408c-1.5,2.458-9.079,12.683-11.278,15.541-2.222,2.889-5.667,8.445-4.833,12.278.723,3.327,2.176,5.264,5.308,6.6,2.288.974,5.584.876,8.025.4A23.836,23.836,0,0,0,38.1,437.194Z"/><path class="a" d="M98.048,430.787c-2.045-2.841-3.418-6.17-5.816-8.719-1.752-1.862-4.033-3.289-5.275-5.523-1.5-2.7-1.181-6.007-.818-9.077,0,0,.257-2.169.636-5.386a63.358,63.358,0,0,0,10.487.449,72.479,72.479,0,0,0,9.844-1.124c2.476,3.438,4.316,5.991,4.316,5.991,2.746,3.81,5.871,8.385,9.013,13.086,2.431,3.636,3.738,8.454,2.127,12.52A10.257,10.257,0,0,1,114.4,439a15.693,15.693,0,0,1-10.121-2.443,21.446,21.446,0,0,1-6.149-5.661Z"/><path class="b" d="M73.7,256.8c-1.775,18.71-3.871,43.226-5.646,61.291-2.615,26.625-6.875,59.252-10.121,85.807-3.711.916-8.389,1.615-17.632,1.31-5.324-.176-11.635-1.414-13.906-3.617,1.025-34.675,2.623-96.023,2.962-105.272.957-26.163,1.529-50.839,2.089-74.573H59.712c6.478.022,18.02.043,26.712.062h29.625c-.486,25.535-1.092,54.164-1.7,83.064-.684,32.755-1.366,65.856-1.866,95.2a62.094,62.094,0,0,1-15.226,2.46,57.255,57.255,0,0,1-16.122-1.524c-1.862-48.879-4.765-93.235-6.567-140.652Z"/><path class="a" d="M62.222,98.39a31.7,31.7,0,0,1-3.028-1.19l-1.244-.564c.163,5.894.265,12.794.265,16.426,0,17.9,1.306,37.317,1.473,53.65.235,23.059-.194,39.083-.417,49.083-.036,1.623-.089,3.634-.158,5.953l.6,0c6.488.022,18.055.043,26.751.063-.026-2.042-.039-3.907-.039-5.556,0-16.006,1-28.117,1.117-51.176.064-12.851,1.106-51.277,1.671-67.8l-2.416.653a53.146,53.146,0,0,1-14.168,2.069A32.133,32.133,0,0,1,62.222,98.39Z"/><path class="a" d="M159.767,122.275c-.214,8.074-.452,21.206-.635,28.16-.709,27.073-1.764,50.187-.775,73.9l1.442-.011c3.5-.028,22.056-.667,25.833-.778l2.147-.063c-3.32-33.1-10.209-94.12-11.035-102.342,0,0-.045-.446-.121-1.214A55.95,55.95,0,0,1,159.8,121c0,.068,0,.105,0,.105Q159.784,121.668,159.767,122.275Z"/><path class="c" d="M215.543,388.215c1.154-28.215,1.773-109.664,1.923-117l1.222-48.333s-33.855.69-34.412.708c-5.637.179-21.292.711-24.477.736l-33.407.772c1.2,8.183,3.523,24.414,4.723,30.962.712,3.885,3.828,25.089,5.211,34.06l1.251,1.428c1.167,14.834,3.555,84.222,5.035,98.567a5.161,5.161,0,0,0,3.52,4.6,49.8,49.8,0,0,0,19.761,1.471c2.512-.309,6.628-1.721,8.628-3.388l.515-.374q.048,2.616.1,5.106c6.731,3.24,13.4,4.308,22.328,4.518,7.083.167,12.666-2.416,16.909-4.682.591-.315.7-1.128.757-1.818C215.276,393.9,215.413,391.4,215.543,388.215Z"/><path class="d" d="M240.112,211.632c2.99-3.17,3.25-4.75,4.56-9.3a23.265,23.265,0,0,0,.43-7v-.04c-.07-1.26-.2-2.45-.31-3.41q-.06-.36-.09-.66c-2.7-18.95-6.03-30.75-12.68-52.93a30.25,30.25,0,0,0-10.73-16.78,37.062,37.062,0,0,0-5.6-3.64c-4.569-2.087-11-5.116-14.826-6.661a9.105,9.105,0,0,0,3.263-8.39,13.067,13.067,0,0,0-5-8.239,24.243,24.243,0,0,0-8.879-4.164L143.84,95.874a23.976,23.976,0,0,0-9.752,9.739,14.089,14.089,0,0,0-.034,13.57l-.514,1.236a32.775,32.775,0,0,1,3.148,9.46c4.91,22.63,7.314,34.653,8.524,53.763.01.2.02.42.04.66.04.97.07,2.16.04,3.43v.04a23.252,23.252,0,0,1-.97,6.94c-1.66,4.44-2.043,5.987-5.273,8.917a41.526,41.526,0,0,1-4.67,3.62c-2.72,1.84-5.913,4.3-9.135,6.3.532,4.764.376,6.3,1.148,11.55,1.2,8.183,3.523,24.414,4.723,30.962.357,1.949,1.32,8.257,2.365,15.193l.486,1.545a46.492,46.492,0,0,0,13.666,2.472c2.418.081,6.661-.757,8.834-2.555,2.416-2,3.25-4.25,3.416-8a203.183,203.183,0,0,0-.685-26.269c-2.257-28.873-.914-55.605-.065-88.008.192-7.3.445-21.419.667-29.334l0-.111a55.835,55.835,0,0,0,16.82-1.064c.077.769.122,1.214.122,1.214.888,8.842,8.788,78.744,11.722,109.323,1.333,13.9.055,27.152,5.222,33.94,3.524,4.63,9.035,5.386,12.1,5.6,12.682.868,20.571-.963,31.46-4.627l4.666-4.31c4.43-3.145-2.488-23.219-8.8-43.169.813-.752,1.638-1.5,2.618-2.291A40.426,40.426,0,0,0,240.112,211.632Z"/><path class="e" d="M196.176,106.521c.2.351.383.706.556,1.069.027.056.248.54.161.339s.142.362.164.423a11.916,11.916,0,0,1,.554,1.988c.034.181.065.487.028.129.017.165.034.329.045.494a9.043,9.043,0,0,1,0,1.067c-.009.163-.023.326-.041.489s-.012.108.015-.126c-.018.108-.037.216-.06.323a8.189,8.189,0,0,1-.259.963c-.054.16-.113.32-.177.476.171-.418-.061.107-.083.152a9.466,9.466,0,0,1-.538.932c-.045.067-.368.522-.281.408s-.225.268-.274.325a12.447,12.447,0,0,1-.934.96,19.827,19.827,0,0,1-5.183,3.223,2.015,2.015,0,0,0-.717,2.736,2.046,2.046,0,0,0,2.736.718c3.953-1.817,7.865-4.571,9.308-8.867,1.162-3.461.149-7.159-1.571-10.24-1.254-2.248-4.711-.233-3.453,2.019Z"/><path class="e" d="M142.855,108.139a20.253,20.253,0,0,0,4.451,16.263,1.975,1.975,0,0,0,1.946.514,2.1,2.1,0,0,0,1.4-1.4,3.877,3.877,0,0,0-.441-3.539,2.054,2.054,0,0,0-2.736-.718,2.017,2.017,0,0,0-.718,2.737c.117.164.152.153.149.223.016-.377-.059.1-.111.234l3.343-.883a15.913,15.913,0,0,1-3-5.85,14.286,14.286,0,0,1-.545-3.182,17.38,17.38,0,0,1-.015-1.826c.013-.305.035-.609.064-.912.015-.152.032-.3.051-.454-.019.154-.009.1.027-.147a2.061,2.061,0,0,0-1.4-2.46,2.015,2.015,0,0,0-2.46,1.4Z"/><path class="e" d="M142.831,94.147a26.67,26.67,0,0,0-10.114,9.792,16.621,16.621,0,0,0-.39,16.253c1.231,2.262,4.687.245,3.454-2.019-4.466-8.2,2.126-16.586,9.069-20.572,2.232-1.281.219-4.739-2.019-3.454Z"/><path class="e" d="M147.766,119.345c1.782,2.276,5.01,2.707,7.685,3.123a60.5,60.5,0,0,0,9.244.736,51.762,51.762,0,0,0,18.636-3.23,2.059,2.059,0,0,0,1.4-2.46,2.015,2.015,0,0,0-2.461-1.4,48.14,48.14,0,0,1-16.73,3.082,55.979,55.979,0,0,1-8.123-.457c-2.135-.284-5.389-.4-6.819-2.226a2.012,2.012,0,0,0-2.829,0,2.052,2.052,0,0,0,0,2.829Z"/><path class="e" d="M159.8,226.323c8.612-.079,17.225-.523,25.833-.778,2.569-.076,2.58-4.076,0-4-8.608.255-17.221.7-25.833.778-2.572.023-2.579,4.024,0,4Z"/><path class="e" d="M135.577,291.545c.489,6.263.738,12.548,1.032,18.822q.673,14.34,1.281,28.682c.428,9.689.857,19.379,1.342,29.066.341,6.812.646,13.638,1.234,20.435.174,2.012.395,3.971,1.653,5.646,2.033,2.7,5.814,3.155,8.943,3.663,6.84,1.111,14.493,1.365,20.983-1.383a16.258,16.258,0,0,0,3.891-2.267,2.012,2.012,0,0,0,0-2.828,2.049,2.049,0,0,0-2.829,0,16.141,16.141,0,0,1-7.692,2.858,48.667,48.667,0,0,1-10.891.077,43.889,43.889,0,0,1-4.808-.768c-1.236-.266-2.928-.41-3.939-1.234-1.22-.994-1.218-2.658-1.339-4.09-.552-6.56-.856-13.144-1.187-19.718-.939-18.7-1.681-37.4-2.547-56.1-.322-6.952-.585-13.918-1.127-20.857-.2-2.549-4.2-2.571-4,0Z"/><path class="e" d="M172.32,261.712c.1,16.586.1,33.172.131,49.758.038,19.1.091,38.21.27,57.315.09,9.495.209,18.989.411,28.482.055,2.571,4.056,2.58,4,0-.38-17.787-.5-35.58-.58-53.37q-.133-28.152-.144-56.3-.027-12.94-.088-25.881c-.015-2.573-4.015-2.579-4,0Z"/><path class="e" d="M200.605,404.994c1.11,5.673,2.527,11.337,2.923,17.122a42.754,42.754,0,0,1-.347,9.363,13.748,13.748,0,0,1-2.655,6.631c-3.011,3.738-8.041,4.289-12.286,2.444-4.686-2.038-7.279-6.618-8.149-11.481-1.166-6.519.917-13.158,2.551-19.406.652-2.492-3.2-3.555-3.857-1.063-1.7,6.513-3.652,13.237-2.776,20.034.76,5.9,3.609,11.651,8.906,14.7,4.918,2.831,11.482,3.242,16.171-.278,5.161-3.874,6.31-10.269,6.52-16.348.265-7.711-1.675-15.272-3.143-22.783-.494-2.524-4.35-1.455-3.858,1.064Z"/><path class="e" d="M152.038,395.423c-3.586,3.761-7.434,7.263-10.982,11.061a69,69,0,0,0-4.966,5.912c-1.551,2.084-3.08,4.328-3.387,6.972-.536,4.62,3.158,8.417,7.289,9.783,5.331,1.763,11.019-.667,15.977-2.5l18.6-6.868c2.394-.884,1.359-4.751-1.064-3.857l-14.645,5.408c-2.459.908-4.91,1.84-7.38,2.717a23.683,23.683,0,0,1-7.075,1.665c-3.153.1-7.721-1.617-7.762-5.419-.024-2.129,1.574-4.082,2.773-5.709a58.9,58.9,0,0,1,4.321-5.119c3.589-3.859,7.495-7.407,11.132-11.22,1.776-1.863-1.048-4.7-2.829-2.829Z"/><path class="e" d="M215.466,271.212c-.12,5.951-.143,11.906-.206,17.858q-.181,17.015-.395,34.03-.243,18.837-.588,37.672c-.188,9.593-.366,19.193-.791,28.78-.063,1.437-.134,2.875-.228,4.311a11.946,11.946,0,0,0-.122,1.641c0,.056-.047.245-.037.266.1.2.427-.089.127-.06a5.546,5.546,0,0,0-1.292.672c-.872.442-1.755.868-2.655,1.253a30.784,30.784,0,0,1-13.636,2.354,56.692,56.692,0,0,1-13.351-1.875,38.963,38.963,0,0,1-5.872-2.185,2.058,2.058,0,0,0-2.737.718,2.016,2.016,0,0,0,.718,2.736,45.814,45.814,0,0,0,12.8,3.849,53.975,53.975,0,0,0,15.208.492,38.557,38.557,0,0,0,12.418-4.337c2.351-1.233,2.318-3.632,2.462-5.957.536-8.654.665-17.342.854-26.009q.411-18.883.638-37.77.248-18.1.435-36.212c.077-7.105.129-14.211.237-21.316.005-.3.01-.607.016-.911.052-2.575-3.948-2.575-4,0Z"/><path class="e" d="M174.744,121.14c.718,7.13,1.544,14.25,2.329,21.373q2.09,18.945,4.156,37.892,2.1,19.335,4.1,38.681c.638,6.25,1.33,12.5,1.65,18.777.229,4.472.327,8.958.762,13.417a36.442,36.442,0,0,0,2.454,11.048,15.105,15.105,0,0,0,7.347,7.7,25.324,25.324,0,0,0,9.644,2.061,72.99,72.99,0,0,0,24.536-2.868c2.031-.592,4.043-1.244,6.048-1.916,2.428-.815,1.387-4.679-1.063-3.857-7.567,2.538-15.191,4.547-23.213,4.746-6.375.158-14.87.43-18.742-5.751a22.9,22.9,0,0,1-2.8-9.249c-.545-4.182-.656-8.417-.846-12.626-.3-6.563-.927-13.082-1.589-19.615q-1.9-18.731-3.959-37.447-2.041-18.851-4.129-37.7c-.863-7.832-1.749-15.663-2.572-23.5q-.061-.584-.12-1.166a2.057,2.057,0,0,0-2-2,2.013,2.013,0,0,0-2,2Z"/><path class="e" d="M157.8,121.1c-.269,9.646-.409,19.294-.656,28.941-.333,12.948-.8,25.893-1.04,38.843-.225,12.118-.239,24.245.293,36.356.542,12.353,1.955,24.64,1.578,37.023-.079,2.6.065,5.607-1.636,7.769-1.568,1.992-4.19,2.788-6.611,3.122a28.065,28.065,0,0,1-8.725-.582,52.549,52.549,0,0,1-6.5-1.706c-2.455-.792-3.507,3.069-1.063,3.857a48,48,0,0,0,14.464,2.549c4.825.014,10.412-1.88,12.659-6.476,1.3-2.655,1.33-5.639,1.417-8.533q.147-4.835.021-9.671c-.161-6.354-.734-12.678-1.146-19.017-1.673-25.716-.6-51.492.122-77.221.331-11.75.5-23.5.828-35.254.072-2.575-3.928-2.573-4,0Z"/><path class="e" d="M214.759,146.919c3.435,14.7,6.008,29.616,9.01,44.41,3.509,17.295,10,33.772,14.72,50.741.606,2.181,1.18,4.373,1.676,6.581.227,1.007.437,2.018.62,3.034.171.944.288,1.7.366,2.387a18.229,18.229,0,0,1,.079,4.13c.07-.6-.051.215-.095.387a6.647,6.647,0,0,1-.217.676c.228-.613-.056.01-.142.174-.172.326.333-.346.071-.1-.122.114-.479.392.054,0a2.062,2.062,0,0,0-.718,2.736,2.014,2.014,0,0,0,2.737.717c2.054-1.525,2.439-4.052,2.39-6.471a48.247,48.247,0,0,0-1.619-10.156c-2.287-9.53-5.492-18.836-8.449-28.171A261.552,261.552,0,0,1,228.1,192.55c-1.509-7.232-2.9-14.489-4.335-21.735-1.652-8.327-3.212-16.691-5.143-24.96-.586-2.5-4.444-1.445-3.858,1.064Z"/><path class="e" d="M29.549,217.3c-.461,19.454-.907,38.908-1.5,58.358-.347,11.309-.771,22.614-1.091,33.923q-.537,18.969-1.046,37.941-.59,21.541-1.2,43.082-.137,4.787-.277,9.572a3.968,3.968,0,0,0,.387,2.636A6.048,6.048,0,0,0,26.75,404.3a19.68,19.68,0,0,0,5.105,1.84,56.015,56.015,0,0,0,12.979,1.148,65.21,65.21,0,0,0,10.248-.76c1.136-.185,2.263-.42,3.381-.693a2.067,2.067,0,0,0,1.468-1.929c2.4-19.653,4.928-39.291,7.211-58.958,2.179-18.767,3.956-37.568,5.654-56.383.956-10.586,1.9-21.174,2.9-31.757a2.016,2.016,0,0,0-2-2,2.043,2.043,0,0,0-2,2c-1.781,18.792-3.375,37.6-5.171,56.39-1.856,19.412-4.172,38.775-6.56,58.128-1.34,10.861-2.707,21.718-4.036,32.58l1.469-1.929a54.573,54.573,0,0,1-13.2,1.311,54.346,54.346,0,0,1-9.563-.651c-2.211-.4-5.15-.9-6.834-2.452l.586,1.414q.5-17.043.967-34.088.5-18.094.993-36.189.38-13.824.772-27.648c.309-10.549.718-21.1,1.031-31.645.484-16.281.87-32.565,1.254-48.849q.069-2.94.139-5.881c.061-2.575-3.939-2.574-4,0Z"/><path class="e" d="M109.7,408.408q2.493,3.463,4.9,6.992c1.673,2.444,3.525,4.864,4.949,7.464,2.191,4,2.779,9.623-1.4,12.568-4.254,3-9.754,1.536-13.745-1.175a19.449,19.449,0,0,1-5.272-5.424c-1.5-2.28-2.7-4.729-4.39-6.885-1.663-2.127-4.1-3.573-5.652-5.765-1.775-2.5-1.281-5.859-.947-8.715a2.011,2.011,0,0,0-2-2,2.047,2.047,0,0,0-2,2c-.367,3.139-.592,6.373.725,9.335,1.182,2.658,3.55,4.282,5.55,6.267,2.145,2.13,3.421,4.9,5.029,7.424a24.835,24.835,0,0,0,6.421,6.855c4.873,3.519,11.466,5.093,17.036,2.284,5.472-2.76,7.343-8.867,5.814-14.562-.936-3.484-3.045-6.349-5.037-9.291-2.137-3.157-4.3-6.3-6.528-9.391a2.056,2.056,0,0,0-2.736-.718,2.017,2.017,0,0,0-.718,2.737Z"/><path class="e" d="M49.288,408.83a28.842,28.842,0,0,1,.752,9.4,15.266,15.266,0,0,1-3.517,7.507,100.471,100.471,0,0,1-7.684,8.1,29.428,29.428,0,0,1-8.2,5.834c-5.076,2.254-13.739,2.7-14.853-4.38-.433-2.754,1.334-5.75,2.729-7.989,1.187-1.905,2.6-3.656,3.945-5.451,3.14-4.2,6.48-8.371,9.236-12.838,1.355-2.2-2.1-4.208-3.454-2.019-2.711,4.393-5.993,8.5-9.079,12.628a75.018,75.018,0,0,0-4.38,6.115c-1.823,3.033-3.52,6.7-2.908,10.327a10.453,10.453,0,0,0,5.636,7.788c3.551,1.75,7.816,1.592,11.569.585,7.771-2.085,13.317-8.335,18.6-14,2.746-2.947,5.188-6.268,6.059-10.278.892-4.1.205-8.329-.591-12.389-.5-2.524-4.351-1.455-3.857,1.063Z"/><path class="e" d="M72.573,260.355c.691,18.157,1.562,36.308,2.48,54.456.92,18.2,1.881,36.4,2.734,54.6q.741,15.795,1.353,31.6a2.051,2.051,0,0,0,1.469,1.929A57.566,57.566,0,0,0,97.857,404.5,56.708,56.708,0,0,0,113.02,402a2.066,2.066,0,0,0,1.468-1.929q.6-35.378,1.359-70.751.754-36.751,1.527-73.5.393-19.22.758-38.439c.049-2.575-3.951-2.576-4,0q-.659,35.175-1.42,70.348-.768,36.744-1.507,73.489-.379,19.426-.717,38.855l1.468-1.928a52.574,52.574,0,0,1-14.1,2.361,53.8,53.8,0,0,1-16.185-1.426l1.468,1.929c-.706-18.5-1.589-37-2.523-55.5-.914-18.1-1.871-36.2-2.722-54.307q-.724-15.42-1.322-30.846c-.1-2.566-4.1-2.579-4,0Z"/><path class="e" d="M117.883,136.792a35.568,35.568,0,0,1,6.76-5.7c2.723-1.835,5.535-3.546,8.4-5.158,2.242-1.263.229-4.72-2.019-3.454-2.94,1.656-5.83,3.415-8.622,5.311a39.319,39.319,0,0,0-7.343,6.172,2.047,2.047,0,0,0,0,2.829,2.02,2.02,0,0,0,2.828,0Z"/><path class="f" d="M105.244,99.656c4.4,1.84,6.908,3.406,11.018,5.506,1.83.94,3.72,1.95,5.74,3.09a38.438,38.438,0,0,1,5.3,4.071,30.2,30.2,0,0,1,9.389,17.556c4.91,22.63,7.314,34.653,8.524,53.763.01.2.02.42.04.66.04.97.07,2.16.04,3.43v.04a23.252,23.252,0,0,1-.97,6.94c-1.66,4.44-2.043,5.987-5.273,8.917a41.526,41.526,0,0,1-4.67,3.62c-2.72,1.84-5.913,4.3-9.135,6.3.532,4.764.376,6.3,1.148,11.55,1.2,8.183,3.523,24.414,4.723,30.962.712,3.885,3.828,25.089,5.211,34.06a2.649,2.649,0,0,1-1.841,2.927c-5.079,1.612-17.281,3.542-27.045,4.147h-1c-4.732.293-11.513-.335-15.877-.585a2.491,2.491,0,0,1-2.371-2.454c-.129-14.927-1.768-59.673-1.768-77.895,0-16.006,1-28.117,1.117-51.176.078-15.726,1.621-69.754,1.965-75.069.085-.907,1.284-1,1.932-.717a81.274,81.274,0,0,1,12.446,8.275Z"/><path class="f" d="M54.8,297.317a142.061,142.061,0,0,1-15.166-.126c-9.765-.6-21.966-2.535-27.045-4.147a2.649,2.649,0,0,1-1.841-2.927c1.382-8.971,4.5-30.175,5.21-34.06,1.2-6.548,3.522-22.779,4.724-30.962.837-5.694,1.468-10.933,2.036-16.083-5.711-2.916-9.416-4.788-13.807-8.9-3.185-2.982-4.48-5.191-6.052-9.653-1.054-2.975-.918-8.37-.7-11.086,1.546-19.094,3.648-29.52,9.06-52.031,1.813-7.548,5.423-15.24,10.85-19.836a32.232,32.232,0,0,1,4.625-3.1,148.614,148.614,0,0,1,14.916-7.085c3.492-3.947,12-8.787,14.079-9.7.64-.28,1.84-.18,1.93.72.34,5.32.59,19.03.59,24.72,0,17.9,1.306,37.317,1.473,53.65.235,23.059-.194,39.083-.417,49.083-.325,14.658-2.083,61.084-3.139,78.972a2.546,2.546,0,0,1-2.37,2.46,125.783,125.783,0,0,1-14.127-.035Z"/><path class="g" d="M57.678,37.735a86.59,86.59,0,0,0-6.406,6.2l-4.687,3.817A4.533,4.533,0,0,0,43.33,46.5a5.42,5.42,0,0,0-1.415.2,38.207,38.207,0,0,1-1.247-11.471A34.7,34.7,0,0,1,55.4,8.3a33.968,33.968,0,0,1,20.752-6.28A34.417,34.417,0,0,1,97.484,9.5c6.4,4.987,12.784,13.488,13.146,26.781a36.886,36.886,0,0,1-1.553,11.39,5.609,5.609,0,0,0-1.282-.206,4.526,4.526,0,0,0-3.291,1.149l-4.539-3.709c-1.427-3.754-4.714-7.927-8.162-10.985a18.568,18.568,0,0,0-5.249-3.413l-5.744-.793c-3.905,1.577-9.429,4.928-12.526,6.588A1.051,1.051,0,0,1,66.8,35.155a5.546,5.546,0,0,0-.1-2.02c-.192-.846-.835-1.214-1.343-.957A41.725,41.725,0,0,0,57.678,37.735Z"/><path class="e" d="M48,46.333a6.924,6.924,0,0,0-7.54-1.2,6.61,6.61,0,0,0-3.5,4.4A16.612,16.612,0,0,0,39.2,62.663c1.664,2.558,4.322,4.842,7.577,4.47a2.061,2.061,0,0,0,2-2,2.012,2.012,0,0,0-2-2c-2.3.263-3.773-1.7-4.736-3.54A13.429,13.429,0,0,1,40.5,54.5c-.127-1.794-.028-3.877.966-5.277-.346.487.543-.436.256-.235a2.082,2.082,0,0,1,.987-.424,2.735,2.735,0,0,1,2.461.6C47.063,50.9,49.9,48.081,48,46.333Z"/><path class="e" d="M105.918,50.032a2.708,2.708,0,0,1,2.362-.495,2.155,2.155,0,0,1,1.015.44q.178.123-.022-.014a2.618,2.618,0,0,1,.193.187c.061.06.118.122.173.187q-.2-.267-.076-.1c.955,1.405,1.008,3.457.833,5.234a13.42,13.42,0,0,1-1.607,4.944c-.81,1.506-2.441,3.937-4.464,3.644a2.066,2.066,0,0,0-2.46,1.4,2.014,2.014,0,0,0,1.4,2.46c5.588.811,8.919-4.369,10.475-9.011,1.287-3.836,1.319-9.742-2.339-12.326a6.881,6.881,0,0,0-8.308.623,2.018,2.018,0,0,0,0,2.828,2.04,2.04,0,0,0,2.828,0Z"/><path class="e" d="M102.075,63.272a27.438,27.438,0,0,1-1.438,4.509c-.075.181-.157.358-.235.537-.1.225-.5,1.126-.206.471-.134.3-.27.592-.418.882a38.063,38.063,0,0,1-3.255,5.21c-2.866,3.93-6.776,8.179-11.717,9.261-2.514.551-1.45,4.408,1.063,3.857,5.827-1.276,10.356-6.075,13.79-10.668a38.613,38.613,0,0,0,3.573-5.641c.165-.325.318-.654.463-.988.521-1.2.008-.027.249-.556.138-.3.266-.613.394-.92a29.824,29.824,0,0,0,1.594-4.891c.563-2.507-3.293-3.578-3.857-1.063Z"/><path class="e" d="M44.618,63.369c2.335,11,10.416,23.035,22.226,25a2.06,2.06,0,0,0,2.46-1.4,2.016,2.016,0,0,0-1.4-2.46c-10.521-1.749-17.36-12.45-19.432-22.2-.534-2.517-4.391-1.452-3.857,1.063Z"/><path class="e" d="M95.975,6.089A37.556,37.556,0,0,0,60.689,3.02,37.071,37.071,0,0,0,40.725,24.54a39.29,39.29,0,0,0-.87,22.172c.6,2.5,4.453,1.443,3.857-1.064-2.522-10.6-.386-22.023,6.9-30.315A34.125,34.125,0,0,1,60.617,7.454a33.38,33.38,0,0,1,16.427-3.41,31.958,31.958,0,0,1,16.912,5.5c2.146,1.435,4.151-2.028,2.019-3.454Z"/><path class="e" d="M111.134,47.724a40.182,40.182,0,0,0-.343-22.606A35.7,35.7,0,0,0,101.254,10.1c-1.875-1.761-4.71,1.062-2.828,2.828a31.539,31.539,0,0,1,8.508,13.254,36.2,36.2,0,0,1,.343,20.479c-.647,2.493,3.21,3.557,3.857,1.063Z"/><path class="e" d="M69.555,73.025a12.339,12.339,0,0,0,5.839,1.461,9.614,9.614,0,0,0,5.811-1.461,2.19,2.19,0,0,0,.919-1.2,2.043,2.043,0,0,0-.2-1.541,2.022,2.022,0,0,0-2.737-.717,4.35,4.35,0,0,1-.6.38c-.06.031-.122.059-.182.091-.284.146.121-.053.193-.076-.177.055-.347.133-.524.188q-.306.1-.62.165a2,2,0,0,1-.652.121q.407-.052.172-.025l-.226.023c-.132.012-.265.021-.4.029-.318.018-.636.023-.955.019-.291-.005-.582-.017-.873-.04-.017,0-.476-.041-.476-.045s.464.072.02,0a9.525,9.525,0,0,1-1.282-.3c-.179-.055-.354-.12-.53-.184-.314-.114.112.038.184.082-.066-.04-.154-.068-.224-.1-.217-.1-.429-.215-.639-.331a2,2,0,1,0-2.019,3.454Z"/><path class="e" d="M74.435,59.408c.23.935.436,1.879.578,2.831l-.072-.531a1.8,1.8,0,0,1,.012.446l.071-.532a.913.913,0,0,1-.046.178l.2-.478a.76.76,0,0,1-.065.114l.313-.405a.638.638,0,0,1-.1.091l.405-.313a1.762,1.762,0,0,1-.229.117l.478-.2a1.718,1.718,0,0,1-.385.106l.531-.072a1.487,1.487,0,0,1-.359-.006l.531.072c-.135-.021-.268-.056-.4-.077a1.515,1.515,0,0,0-.8-.035,1.486,1.486,0,0,0-.743.237,2,2,0,0,0-.718,2.736,1.926,1.926,0,0,0,1.2.919c.356.054.7.14,1.062.161a3.453,3.453,0,0,0,1.628-.386,2.462,2.462,0,0,0,1.336-1.6,3.8,3.8,0,0,0,0-1.674c-.146-.927-.343-1.847-.567-2.758a2,2,0,0,0-2.46-1.4,2.022,2.022,0,0,0-1.2.919,2.128,2.128,0,0,0-.2,1.541Z"/><path class="e" d="M59.876,50.886c-.5,1.551-.244,5.141,2.7,5.49,3.9.035,4.175-4.3,2.892-6.353C64.421,48.338,61.269,47.6,59.876,50.886Z"/><path class="e" d="M91.124,51.355c.456,1.566.09,5.146-2.867,5.407-3.9-.082-4.044-4.42-2.7-6.438C86.657,48.672,89.83,48.026,91.124,51.355Z"/><path class="e" d="M85.544,32.238a22.3,22.3,0,0,1,7.245,5.44,30.99,30.99,0,0,1,3.063,3.8c.447.659.869,1.336,1.253,2.033a17.511,17.511,0,0,1,.932,1.935,2.058,2.058,0,0,0,2.46,1.4,2.015,2.015,0,0,0,1.4-2.46,29.947,29.947,0,0,0-6.1-9.343,26.022,26.022,0,0,0-8.227-6.251,2.059,2.059,0,0,0-2.736.717,2.017,2.017,0,0,0,.717,2.737Z"/><path class="e" d="M52.686,45.345a84.048,84.048,0,0,1,7.19-6.87,46.269,46.269,0,0,1,4.045-3.108,22.106,22.106,0,0,0,1.928-1.188l.261-.141q-1.609-1.077-1.284-.146a6.016,6.016,0,0,0-.008,1.116c0,1.833,1.183,3.508,3.186,3.4,1.448-.079,3.012-1.322,4.24-2.015a83.136,83.136,0,0,1,9.1-4.746,2.065,2.065,0,0,0,1.4-2.46,2.013,2.013,0,0,0-2.461-1.4,87,87,0,0,0-9.573,4.879c-.709.4-1.417.8-2.128,1.2-.254.141-.893.351-1.06.583q1.341,1.509,1.317.412l.016-.306c.044-1.863-.652-4.1-2.771-4.411-1.524-.22-3.127,1.055-4.32,1.868-1.477,1.006-2.889,2.114-4.261,3.257a83.317,83.317,0,0,0-7.641,7.248c-1.75,1.884,1.072,4.719,2.829,2.829Z"/><path class="e" d="M62.007,88.589c.141-1.1.251-2.21.287-3.322a2,2,0,0,0-3.414-1.414,2.132,2.132,0,0,0-.586,1.414c-.036,1.112-.146,2.218-.287,3.322A2.222,2.222,0,0,0,58.593,90a2,2,0,0,0,2.828,0l.313-.405a1.987,1.987,0,0,0,.273-1.009Z"/><path class="e" d="M85.879,87.421c.079,1.357.24,2.707.339,4.062A2.125,2.125,0,0,0,86.8,92.9a2,2,0,0,0,2.829,0,1.979,1.979,0,0,0,.586-1.415c-.1-1.355-.26-2.7-.339-4.062a2.114,2.114,0,0,0-.586-1.414,2,2,0,0,0-2.828,0,2,2,0,0,0-.586,1.414Z"/><path class="e" d="M58.185,98.927c9.365,4.161,19.424,3.542,29.143.939,2.484-.665,1.43-4.525-1.063-3.857C77.706,98.3,68.509,99.164,60.2,95.473a2.064,2.064,0,0,0-2.737.717,2.016,2.016,0,0,0,.718,2.737Z"/><path class="e" d="M23.032,206.925a55.956,55.956,0,0,1-11.3-6.972,24.111,24.111,0,0,1-4.284-4.463,22.272,22.272,0,0,1-2.51-5.17c-1.254-3.5-1.045-7.5-.754-11.154.344-4.309.768-8.613,1.3-12.9.988-7.918,2.487-15.757,4.21-23.545q1.647-7.44,3.459-14.844a44,44,0,0,1,5.287-13.011,25.61,25.61,0,0,1,4.765-5.7A30.037,30.037,0,0,1,29,105.439c5.014-2.667,10.177-4.963,15.427-7.119a2.064,2.064,0,0,0,1.4-2.46,2.013,2.013,0,0,0-2.46-1.4c-4.916,2.019-9.785,4.11-14.513,6.543-4.208,2.166-8.206,4.51-11.249,8.217C10.885,117.4,8.976,127.868,6.68,137.9c-1.925,8.414-3.653,16.871-4.814,25.428-.6,4.394-1.075,8.8-1.465,13.219-.375,4.251-.719,8.6.109,12.822,2.069,10.558,11.651,16.494,20.5,21.007,2.289,1.167,4.315-2.283,2.019-3.454Z"/><path class="e" d="M102.235,98.446c-2.391,3.369-4.321,7.047-6.76,10.382a2.007,2.007,0,0,0,.717,2.736,2.056,2.056,0,0,0,2.736-.717c2.44-3.335,4.37-7.013,6.761-10.382a2.01,2.01,0,0,0-.718-2.737,2.053,2.053,0,0,0-2.736.718Z"/><path class="e" d="M94.012,111.105a117.206,117.206,0,0,1,13.706,10.854l-.586-1.414c-.475,9.12-1.934,18.242-3.183,27.278q-2.578,18.66-5.619,37.257c-.849,5.154-1.715,10.31-2.737,15.434-.5,2.513,3.353,3.589,3.857,1.063,2.443-12.245,4.263-24.63,6.1-36.977,1.919-12.9,3.835-25.832,5.149-38.812.11-1.08.212-2.161.3-3.243.123-1.535.328-2.707-.95-3.871a122.228,122.228,0,0,0-14.016-11.022c-2.142-1.442-4.146,2.022-2.019,3.453Z"/><path class="e" d="M41.858,96.627a74.838,74.838,0,0,0,3.194,7.2c1.084,2.209,2.2,4.411,3.449,6.534a2,2,0,1,0,3.454-2.019c-1.214-2.067-2.3-4.21-3.364-6.361-.584-1.186-1.154-2.38-1.7-3.586q-.2-.438-.39-.879c-.056-.128-.111-.256-.167-.385-.221-.505.153.379-.049-.115s-.392-.966-.571-1.456a2.054,2.054,0,0,0-2.461-1.4,2.017,2.017,0,0,0-1.4,2.46Z"/><path class="e" d="M51.577,106.494c-4.885,2.81-9.807,5.569-14.464,8.752-1.109.758-2.5,1.4-2.525,2.911-.006.36.045.731.073,1.09.074.958.17,1.914.273,2.87.612,5.679,1.451,11.336,2.3,16.984,2.227,14.785,4.725,29.531,7.346,44.252,1.112,6.246,2.236,12.491,3.478,18.713.5,2.522,4.36,1.455,3.857-1.063-2.145-10.743-4.009-21.546-5.856-32.344-2.149-12.567-4.24-25.151-6.012-37.777-.575-4.095-1.239-8.491-1.467-12.835l-.99,1.727c5.119-3.624,10.574-6.7,16-9.826,2.231-1.283.219-4.741-2.019-3.454Z"/><path class="e" d="M59.712,223.75q13.356.045,26.712.062c2.574.006,2.578-3.994,0-4q-13.356-.029-26.712-.062c-2.574-.008-2.578,3.992,0,4Z"/><path class="e" d="M106.44,295.191a74.822,74.822,0,0,1-8.284-.1c-1.345-.074-2.689-.163-4.033-.254l-1.864-.125c-.385-.025-1.491.076-1.8-.152-.633-.465-.292-2.547-.3-3.275q-.036-2.3-.088-4.593c-.182-8.327-.427-16.653-.66-24.979-.475-16.937-1.174-33.905-.946-50.851.126-9.352.555-18.7.8-28.046.224-8.521.232-17.042.377-25.563.265-15.543.694-31.083,1.154-46.621.172-5.818.342-11.636.568-17.452.03-.753.06-1.506.1-2.259a3.788,3.788,0,0,0,.037-.72c-.1-.61-.723.711-.743.954-.009.109-.377-.29-.107-.034a2.167,2.167,0,0,0,.388.2,72.235,72.235,0,0,1,9.383,6.038,15.909,15.909,0,0,1,2.914,2.494c1.647,1.982,4.463-.861,2.829-2.828a20.371,20.371,0,0,0-3.724-3.12c-1.663-1.22-3.376-2.372-5.113-3.485a48.838,48.838,0,0,0-4.408-2.624c-1.913-.959-4.774-.864-5.336,1.69a28.079,28.079,0,0,0-.259,4.845q-.153,4.148-.28,8.3-.764,24.043-1.274,48.1c-.154,7.453-.191,14.906-.3,22.359-.154,10.428-.6,20.845-.87,31.269-.456,17.419.187,34.853.671,52.265.251,9.007.517,18.014.733,27.022.076,3.219.149,6.437.186,9.656.029,2.49,1.068,4.8,3.789,5.242a78.4,78.4,0,0,0,8.184.56,74.822,74.822,0,0,0,8.284.1c2.559-.145,2.576-4.146,0-4Z"/><path class="e" d="M43.547,98.182a45.662,45.662,0,0,1,9.419-6.825q.956-.561,1.927-1.091c.375-.2,1.329-.475,1.572-.808.261-.358.012.135-.007.014.007.045-.809-.942-.821-.934a5.63,5.63,0,0,0,.054.968q.06,1.152.1,2.305c.283,7.231.411,14.474.421,21.71.029,21.215,1.491,42.4,1.538,63.615.032,14.231-.188,28.464-.584,42.69-.383,13.722-.913,27.44-1.468,41.156q-.444,10.954-.952,21.906-.209,4.379-.441,8.756-.05.913-.1,1.827c-.024.434.083,1.161-.179,1.53-.372.523-1.835.3-2.427.325q-2.037.073-4.074.081-3.948.018-7.892-.215c-2.572-.152-2.563,3.848,0,4q4.172.246,8.353.213,2.026-.016,4.052-.1a8.493,8.493,0,0,0,3.652-.589c3.125-1.616,2.565-6.057,2.721-9.044.362-6.962.67-13.926.965-20.89q.956-22.569,1.679-45.146.633-20.727.7-41.468c.019-10.813-.119-21.616-.514-32.422-.412-11.305-.936-22.609-1.015-33.923-.055-7.769-.119-15.536-.4-23.3a25.852,25.852,0,0,0-.268-4.716C59,85.424,56.34,85.124,54.446,86a56.937,56.937,0,0,0-8.969,5.431,37.074,37.074,0,0,0-4.759,3.918c-1.817,1.827,1.01,4.657,2.829,2.829Z"/><path class="e" d="M119.781,131.512q-.5,24.744.548,49.492c.349,8.03.749,16.077,1.6,24.07q1.218,11.445,2.867,22.828,2.272,15.552,4.788,31.057c1.641,10.222,3.1,20.474,4.662,30.707.166,1.082.039,1.364-1.051,1.677-1.214.348-2.447.634-3.682.9-3.282.7-6.6,1.243-9.923,1.708a153.716,153.716,0,0,1-22.006,1.514c-1.771-.008-3.542-.05-5.31-.146-2.573-.14-2.565,3.86,0,4a137.112,137.112,0,0,0,22.485-.768,117.809,117.809,0,0,0,19.5-3.349,5.2,5.2,0,0,0,3.748-2.964c.559-1.388.224-2.793.008-4.214q-.588-3.846-1.163-7.694-1.293-8.607-2.6-17.211c-1.52-9.917-3.193-19.807-4.647-29.736-2.191-14.967-4.094-29.91-4.919-45.023-.924-16.933-1.22-33.9-1.007-50.861q.039-2.993.1-5.985c.052-2.575-3.948-2.575-4,0Z"/><path class="e" d="M23.294,131.512q.51,25.206-.588,50.417c-.37,8.241-.84,16.479-1.724,24.682-.8,7.463-1.782,14.894-2.865,22.32-1.5,10.288-3.167,20.542-4.775,30.812-.848,5.419-1.656,10.845-2.471,16.269q-.626,4.175-1.255,8.347-.276,1.832-.555,3.663c-.217,1.421-.551,2.827.007,4.214,1.162,2.883,4.751,3.289,7.431,3.862,3.349.717,6.735,1.266,10.126,1.736a160.814,160.814,0,0,0,22.866,1.629c1.771-.008,3.542-.05,5.311-.146,2.56-.14,2.576-4.141,0-4a136.362,136.362,0,0,1-21.863-.7,112.766,112.766,0,0,1-19.059-3.273c-1.162-.334-1.2-.667-1.033-1.791q.252-1.646.5-3.293.621-4.1,1.235-8.21c.811-5.4,1.616-10.8,2.453-16.19,1.541-9.929,3.183-19.836,4.635-29.779,1.023-7.011,2.027-14.02,2.826-21.06.907-8,1.542-15.993,1.964-24.033.864-16.478,1.141-32.991.933-49.49q-.038-2.993-.1-5.985c-.052-2.571-4.052-2.58-4,0Z"/><path class="e" d="M126.253,215.272c2.314-1.449,4.526-3.047,6.749-4.629,2.169-1.544,4.4-3,6.439-4.711a19.632,19.632,0,0,0,4.224-4.6,29.472,29.472,0,0,0,2.3-5.309c1.672-4.506,1.455-9.491,1.129-14.212-.307-4.451-.713-8.9-1.251-13.325-1.087-8.94-2.724-17.792-4.551-26.607-1.061-5.124-1.991-10.328-3.307-15.391a31.887,31.887,0,0,0-5.8-11.749,35.049,35.049,0,0,0-10.662-9.042,165.922,165.922,0,0,0-15.268-7.765,2.069,2.069,0,0,0-2.736.718,2.012,2.012,0,0,0,.717,2.736c4.4,1.857,8.587,4.207,12.805,6.436a37.533,37.533,0,0,1,9.832,6.9,27.966,27.966,0,0,1,6.451,10.17c1.6,4.573,2.312,9.518,3.314,14.248,1.813,8.558,3.534,17.143,4.744,25.81.573,4.1,1.015,8.221,1.365,12.346a71.941,71.941,0,0,1,.369,13.548,23.511,23.511,0,0,1-1.992,6.693,12.4,12.4,0,0,1-2.93,4.158,56.653,56.653,0,0,1-6.682,5.119c-2.4,1.7-4.779,3.439-7.276,5-2.176,1.364-.171,4.826,2.019,3.454Z"/><path class="a" d="M116.925,182.781l.36.029a35.475,35.475,0,0,0,11.525-1.035,7.049,7.049,0,0,0,2.76-1.208c3.046-2.482,1.3-7.613,3.805-10.717a10.417,10.417,0,0,0,1.183-3.082,4.381,4.381,0,0,0-.845-3.839c-.893-1.245-1.97-1.192-3.382-1.607-1.667-.491-4.938-1.157-7.059-1.536l.017-.03c.592-1.209.951-3,.167-3.982a3.212,3.212,0,0,0-3.326-.918,9.62,9.62,0,0,0-3.184,1.784,15.068,15.068,0,0,0-4.729,4.808c-2.874,1.149-5.7,5.207-5.7,8.908a15.624,15.624,0,0,0,2.78,9.457,9.557,9.557,0,0,0,2.783,2.267A7.658,7.658,0,0,0,116.925,182.781Z"/><path class="e" d="M127.016,160.765c.8-1.753,1.364-3.942.34-5.739a5,5,0,0,0-5.168-2.2c-2.09.32-3.783,1.711-5.408,2.966a15.473,15.473,0,0,0-4.29,4.65l.717-.718a11.621,11.621,0,0,0-5.578,5.927,14.634,14.634,0,0,0-.681,9.033,13.825,13.825,0,0,0,3.689,7.353c2.336,2.154,4.929,2.743,8.039,2.853a37.529,37.529,0,0,0,10.213-1.069c2.826-.694,5.048-2.03,6.083-4.86.809-2.209.5-4.7,1.392-6.877.436-1.062,1.177-1.913,1.588-3.013a9.116,9.116,0,0,0,.715-3.851,6.715,6.715,0,0,0-2-4.225,8.188,8.188,0,0,0-3.8-1.6c-2.608-.71-5.27-1.241-7.934-1.687a2.06,2.06,0,0,0-2.461,1.4,2.018,2.018,0,0,0,1.4,2.461c2.4.4,4.8.864,7.159,1.474a11.267,11.267,0,0,1,2.72.74,2.466,2.466,0,0,1,.832,2.687,8.358,8.358,0,0,1-1.217,2.775,9.779,9.779,0,0,0-1.305,3.521c-.342,1.84-.123,4.814-1.655,6.179a7.649,7.649,0,0,1-3.481,1.23,31.822,31.822,0,0,1-4.992.681c-2.784.159-6.108.443-8.332-1.528-1.855-1.644-2.691-4.422-2.962-6.809A9.169,9.169,0,0,1,112.751,165a7.086,7.086,0,0,1,1.476-1.306,4.653,4.653,0,0,0,1.815-1.413,13.263,13.263,0,0,1,3.163-3.348c1-.774,2.412-2.12,3.746-2.192s1.022,1.1.611,2.006a2.061,2.061,0,0,0,.718,2.737,2.016,2.016,0,0,0,2.736-.718Z"/><path class="e" d="M199.928,112.968c3.725,1.489,7.357,3.223,11,4.9a40.721,40.721,0,0,1,9.1,5.183,29.385,29.385,0,0,1,7.466,8.922c2.1,3.989,3.1,8.514,4.376,12.811,2.425,8.172,4.8,16.365,6.753,24.666a184.314,184.314,0,0,1,4.314,23.808,26.191,26.191,0,0,1-1.688,13.329c-1.849,4.235-6.294,6.847-9.546,9.886-1.884,1.761.949,4.586,2.829,2.828,3.343-3.124,7.443-5.739,9.73-9.83a25.15,25.15,0,0,0,2.9-11.723,82.5,82.5,0,0,0-1.564-13.727q-1.013-6.114-2.335-12.172c-1.873-8.534-4.245-16.946-6.711-25.324-1.4-4.772-2.569-9.728-4.533-14.307a31.1,31.1,0,0,0-6.988-10.041,37.519,37.519,0,0,0-10.671-7.108c-4.431-2.041-8.843-4.149-13.375-5.96a2.014,2.014,0,0,0-2.46,1.4,2.049,2.049,0,0,0,1.4,2.461Z"/><path class="a" d="M132.774,55.616a30.268,30.268,0,0,0,2.5,11.029,4.472,4.472,0,0,0-3.307-.958,4.152,4.152,0,0,0-3.577,2.323c-1.112,2.279-.78,6.315.241,8.755a13.525,13.525,0,0,0,4.4,6.145,4.841,4.841,0,0,0,4.175.744,34,34,0,0,0,7.278,11.7c4.42,4.6,9.023,7.259,14.462,7.65l17.65-1.851c8.068-2.387,14.172-14.607,15.075-17.7a29.024,29.024,0,0,0,1.06-3.632l.368.036a4.929,4.929,0,0,0,3.717-1.357,13.521,13.521,0,0,0,3.514-6.691c.675-2.558.449-6.6-.966-8.705A4.148,4.148,0,0,0,195.5,61.3a4.473,4.473,0,0,0-3.144,1.4s5.661-31.376-32.783-28.487C136.959,35.911,132.571,46.9,132.774,55.616Z"/><path class="f" d="M189.677,56.746a21.094,21.094,0,0,1,2.747,5.89,4.47,4.47,0,0,1,3.08-1.34,4.944,4.944,0,0,1,1.981.3c2.441-8.62,2.694-24.171-4.028-30.765-3.891-3.817-5.936-6.945-10.6-10.121-5.438-3.7-13.832-5.2-20.973-4.466-10.182,1.2-15.533,3.616-21.056,8.369a16.844,16.844,0,0,0-5.389,7.783h-1.79c-4.135,4.481-6.015,12.692-5.32,20.872a42.68,42.68,0,0,0,2.526,12.643,5.6,5.6,0,0,1,1.115-.226,4.472,4.472,0,0,1,3.307.958L137.61,68.6q-.386-2.356-.772-4.713a6.833,6.833,0,0,1,.186-4.136c.739-1.518,2.5-2.478,3.344-3.953.783-1.368.674-2.976.875-4.5a9.5,9.5,0,0,1,2.709-5.555,8.843,8.843,0,0,1,6.094-2.518s9.176.906,12.351.82,9.042.3,9.042.3a20.659,20.659,0,0,1,8.6,1.093c2.666,1.052,4.95,3.073,5.6,5.6a9,9,0,0,0,.456,1.658,7.8,7.8,0,0,0,1.9,2.1A12.808,12.808,0,0,1,189.677,56.746Z"/><path class="e" d="M132.68,30.509c-3.926,3.964-5.594,9.582-6.236,14.99A47.214,47.214,0,0,0,128.3,64.682c.767,2.448,4.629,1.4,3.857-1.063a44.612,44.612,0,0,1-1.8-17.278c.437-4.6,1.818-9.636,5.153-13,1.814-1.831-1.013-4.661-2.828-2.829Z"/><path class="e" d="M199.747,60.854A39.671,39.671,0,0,0,193.9,29.9a35.59,35.59,0,0,0-5.981-7.4,33.157,33.157,0,0,0-20.109-8.261c-6.722-.328-13.789.442-19.96,3.26a34.562,34.562,0,0,0-7.736,5.117,21.139,21.139,0,0,0-6.6,9.257c-.881,2.423,2.983,3.468,3.857,1.064,1.833-5.04,6.327-8.721,10.944-11.212,5.228-2.82,11.388-3.548,17.242-3.538a29.94,29.94,0,0,1,18.233,6.071,25.2,25.2,0,0,1,5.558,6.01,43.46,43.46,0,0,1,4.525,7.775A36.526,36.526,0,0,1,195.89,59.79c-.584,2.505,3.271,3.573,3.857,1.064Z"/><path class="e" d="M171.439,46.348c2.828-.13,5.9-.062,8.5,1.222a8.415,8.415,0,0,1,2.682,1.986,6.276,6.276,0,0,1,1.281,2.862c.667,2.69,3.367,4.081,4.734,6.39a29.263,29.263,0,0,1,2.7,7.224c.687,2.477,4.548,1.425,3.857-1.064a33.431,33.431,0,0,0-3.1-8.179,16.114,16.114,0,0,0-2.945-3.643,5.2,5.2,0,0,1-1.249-1.294c-.305-.606-.317-1.411-.559-2.053-2.391-6.318-9.929-7.725-15.894-7.451-2.563.117-2.578,4.118,0,4Z"/><path class="e" d="M173.92,38.538a28.947,28.947,0,0,0-6.546.025,12.2,12.2,0,0,0-3.07.841,11.19,11.19,0,0,0-1.532.759q-.318.2-.621.416c-.215.156-.424.321-.632.485-.071.056-.429.287-.093.073l1.541-.2-.122-.026,1.4,1.4-.02-.07V43.3l.026-.071-.514.882.045-.035H160.95l.034.038a2.012,2.012,0,0,0,2.829,0,2.049,2.049,0,0,0,0-2.828l-.034-.039a2.049,2.049,0,0,0-2.829,0,2.1,2.1,0,0,0-.565,2.124,2,2,0,0,0,1.4,1.4,2.212,2.212,0,0,0,1.724-.215,5.434,5.434,0,0,0,.541-.416c.027-.021.318-.252.174-.144-.16.119.268-.182.257-.175.1-.069.207-.136.313-.2q.312-.191.638-.356c.135-.068.272-.129.408-.194.274-.133-.271.085.018-.005.226-.071.446-.162.674-.231a11.654,11.654,0,0,1,1.556-.358c.041-.007.413-.055.175-.027s.136-.012.177-.016q.4-.039.8-.06c.51-.026,1.021-.03,1.531-.021,1.052.02,2.1.1,3.148.19a2.008,2.008,0,0,0,2-2,2.052,2.052,0,0,0-2-2Z"/><path class="e" d="M166.333,31.371c-4.853-.216-10.181,2.441-12.257,6.974a2.049,2.049,0,0,0,.718,2.736,2.023,2.023,0,0,0,2.736-.717,8.9,8.9,0,0,1,.712-1.276c.069-.1.143-.2.213-.3.157-.229-.307.361.007-.005.162-.189.325-.378.5-.558.157-.163.32-.32.488-.473.094-.085.189-.169.286-.25.043-.037.38-.31.154-.132s.121-.086.167-.119c.1-.075.212-.147.319-.218q.324-.215.662-.406c.2-.116.411-.226.621-.329.117-.058.239-.108.355-.167.218-.11-.328.123.029-.014a13.319,13.319,0,0,1,1.5-.485c.257-.064.517-.12.777-.166a.975.975,0,0,1,.314-.052c-.242.03-.288.037-.137.019.079-.01.159-.018.238-.025a11.635,11.635,0,0,1,1.595-.035,2.014,2.014,0,0,0,2-2,2.043,2.043,0,0,0-2-2Z"/><path class="e" d="M150.046,41.226a10.981,10.981,0,0,0-7.791,3.394c-2.141,2.31-2.885,5.088-3.149,8.146a4.656,4.656,0,0,1-1.59,3.312,9.4,9.4,0,0,0-2.5,3.334A9.014,9.014,0,0,0,134.843,64c.266,1.766.576,3.526.864,5.289a2.017,2.017,0,0,0,2.461,1.4,2.048,2.048,0,0,0,1.4-2.461q-.359-2.192-.717-4.384c-.17-1.039-.488-2.3.01-3.284a12.193,12.193,0,0,1,2.149-2.321,7.3,7.3,0,0,0,1.8-3.277c.536-2.311.255-4.569,1.608-6.651a6.885,6.885,0,0,1,5.629-3.081c2.57-.056,2.58-4.057,0-4Z"/><path class="e" d="M193.774,64.114a2.691,2.691,0,0,1,2.337-.814,2.248,2.248,0,0,1,.919.284,2.8,2.8,0,0,1,.25.154c-.135-.113-.15-.125-.048-.037.124.106.231.227.347.34.312.3-.019-.051.026.024.127.21.263.41.372.631a6.1,6.1,0,0,1,.389,1.139,11.328,11.328,0,0,1,.331,2.958,13.436,13.436,0,0,1-1.134,5.12c-.787,1.855-2.2,4.081-4.462,3.945a2,2,0,0,0,0,4c6.673.4,9.835-8.45,9.58-13.886-.121-2.569-.729-5.555-2.826-7.267a6.759,6.759,0,0,0-8.909.58c-1.8,1.844,1.026,4.675,2.828,2.829Z"/><path class="e" d="M191.2,77.158a30.012,30.012,0,0,1-1.8,6.741c-.028.071-.3.7-.122.3-.075.175-.153.349-.232.523q-.312.682-.653,1.353-.772,1.527-1.665,2.99c-2.473,4.065-5.915,8.689-10.664,10.16-2.452.758-1.406,4.621,1.063,3.857,5.632-1.744,9.746-6.7,12.765-11.529a34.3,34.3,0,0,0,5.16-13.334,2.068,2.068,0,0,0-1.4-2.46,2.014,2.014,0,0,0-2.46,1.4Z"/><path class="e" d="M134.56,82.033c3.307,10.962,12.3,22,24.388,22.973,2.566.208,2.552-3.793,0-4-5.2-.42-9.526-3.39-13.048-7.064a32.168,32.168,0,0,1-7.483-12.972c-.741-2.458-4.6-1.411-3.857,1.063Z"/><path class="e" d="M159.822,89.565a11.517,11.517,0,0,0,2.2.787,13.054,13.054,0,0,0,3.838.242,9.778,9.778,0,0,0,5.867-2.14,2.015,2.015,0,0,0,0-2.829,2.048,2.048,0,0,0-2.829,0c-.28.252-.046.027.118-.077-.109.069-.212.151-.322.219s-.24.142-.363.206c-.083.043-.17.08-.252.124-.287.153.383-.143.15-.061a11.428,11.428,0,0,1-1.214.375c-.261.06-.525.1-.788.15-.238.043.372-.035-.026,0-.173.015-.344.033-.516.045a12.92,12.92,0,0,1-1.7.011q-.174-.01-.348-.027l-.2-.022q-.238-.029.218.03a3.77,3.77,0,0,0-.568-.1,7.948,7.948,0,0,1-.991-.285c-.116-.042-.229-.092-.345-.133.718.254.269.113.092.035a2.051,2.051,0,0,0-2.736.717,2.022,2.022,0,0,0,.717,2.736Z"/><path class="e" d="M163.582,75.662c.159.473.308.95.451,1.428a10.823,10.823,0,0,1,.391,1.522l-.072-.531a1.368,1.368,0,0,1,0,.3l.071-.532a.9.9,0,0,1-.034.136l.2-.478a.636.636,0,0,1-.065.117l.313-.4a.443.443,0,0,1-.064.066l.405-.313a1.8,1.8,0,0,1-.33.189l.478-.2a1.5,1.5,0,0,1-.353.1l.532-.071a3.769,3.769,0,0,1-.663-.034,2,2,0,0,0-1.415,3.414,2.2,2.2,0,0,0,1.415.586A5.071,5.071,0,0,0,165.4,81a3.519,3.519,0,0,0,1.645-.467,2.494,2.494,0,0,0,1.24-1.617,3.657,3.657,0,0,0-.063-1.667c-.219-.894-.487-1.776-.781-2.647a2.123,2.123,0,0,0-.919-1.2,2,2,0,0,0-2.737.718,2,2,0,0,0-.2,1.541Z"/><path class="e" d="M148.618,68.632c-.366,1.568.186,5.08,3.117,5.18,3.844-.289,3.754-4.575,2.32-6.494C152.881,65.747,149.717,65.278,148.618,68.632Z"/><path class="e" d="M179.417,66.5c.578,1.5.515,5.058-2.374,5.56-3.848.242-4.348-4.015-3.192-6.113C174.8,64.232,177.867,63.333,179.417,66.5Z"/><path class="e" d="M136.689,65.23a6.9,6.9,0,0,0-7.567-.746,6.482,6.482,0,0,0-3.182,4.669,16.535,16.535,0,0,0,3.319,12.83c1.992,2.579,4.818,4.361,8.174,3.688a2,2,0,1,0-1.063-3.857c-1.958.392-3.634-1.648-4.546-3.111a18.425,18.425,0,0,1-1.28-2.512q-.087-.2.017.042c-.045-.106-.088-.214-.127-.323-.095-.269-.188-.536-.266-.811a12.193,12.193,0,0,1-.342-1.535,11.724,11.724,0,0,1-.079-2.988,4.9,4.9,0,0,1,.618-2c.192-.328-.277.22.057-.085.129-.118.239-.256.375-.368-.273.226.225-.127.247-.139.42-.228-.124,0,.375-.158a2.737,2.737,0,0,1,2.442.229,2.066,2.066,0,0,0,2.828,0,2.013,2.013,0,0,0,0-2.829Z"/><path class="e" d="M159.855,100.573a28.954,28.954,0,0,0,.2,3.221,2.113,2.113,0,0,0,.585,1.414,2,2,0,0,0,2.829,0,2,2,0,0,0,.586-1.414,28.954,28.954,0,0,1-.2-3.221,2,2,0,0,0-3.415-1.414,2.17,2.17,0,0,0-.585,1.414Z"/><path class="e" d="M165.557,100.315c.056.47.059.949.071,1.422.014.561.022,1.122.046,1.683a2.1,2.1,0,0,0,.586,1.414,2,2,0,0,0,3.414-1.414c-.024-.561-.032-1.122-.046-1.683-.012-.473-.015-.952-.071-1.422a2.216,2.216,0,0,0-.586-1.414,2,2,0,0,0-2.828,0l-.313.4a1.991,1.991,0,0,0-.273,1.01Z"/><path class="e" d="M170.864,99.705l.3,3.229a1.516,1.516,0,0,0,.172.771,1.5,1.5,0,0,0,.414.643,2,2,0,0,0,2.828,0,1.949,1.949,0,0,0,.586-1.414l-.3-3.229a2.222,2.222,0,0,0-.586-1.414,2,2,0,0,0-2.828,0,1.95,1.95,0,0,0-.586,1.414Z"/><path class="e" d="M189.717,92.346c4.382,1.2,8.88,3.228,11.239,7.334a8.586,8.586,0,0,1,1.18,5.541,6.34,6.34,0,0,1-2.832,4.618l1.01-.273-.209.009,1.414.585-.1-.1.586,1.415-.015-.138-.585,1.414.086-.084c1.853-1.794-.977-4.621-2.828-2.829-1.782,1.726.254,4.383,2.422,3.554a8.156,8.156,0,0,0,3.464-3.331A11.7,11.7,0,0,0,205.8,101c-1.831-6.955-8.555-10.736-15.022-12.514-2.485-.683-3.546,3.175-1.063,3.857Z"/></svg>