<?xml version="1.0" encoding="iso-8859-1"?>
<!-- Uploaded to: SVG Repo, www.svgrepo.com, Generator: SVG Repo Mixer Tools -->
<svg height="800px" width="800px" version="1.1" id="Layer_1" xmlns="http://www.w3.org/2000/svg" xmlns:xlink="http://www.w3.org/1999/xlink" 
	 viewBox="0 0 512 512" xml:space="preserve">
<path style="fill:#F4D853;" d="M341.334,128.001H170.666c-11.783,0-21.333,9.552-21.333,21.333v28.445
	c0,58.816,47.85,106.667,106.667,106.667s106.667-47.851,106.667-106.667v-28.445C362.667,137.552,353.114,128.001,341.334,128.001z
	"/>
<path style="fill:#E9A440;" d="M341.334,128.001H256v156.445c58.818,0,106.667-47.851,106.667-106.667v-28.445
	C362.667,137.552,353.114,128.001,341.334,128.001z"/>
<path style="fill:#DF6246;" d="M256,327.113c-90.186,0-163.556,73.37-163.556,163.554c0,11.782,9.55,21.333,21.333,21.333H256
	c11.78,0,21.333-9.552,21.333-21.333v-142.22C277.333,336.665,267.78,327.113,256,327.113z"/>
<g>
	<path style="fill:#668E2F;" d="M256,327.113c-11.783,0-21.333,9.552-21.333,21.333v142.22c0,11.782,9.55,21.333,21.333,21.333
		h142.223c11.78,0,21.333-9.552,21.333-21.333C419.556,400.483,346.184,327.113,256,327.113z"/>
</g>
<path style="fill:#D6E5F6;" d="M256,512c-11.783,0-21.333-9.552-21.333-21.333v-142.22c0-11.782,9.55-21.333,21.333-21.333
	c11.78,0,21.333,9.552,21.333,21.333v142.22C277.333,502.448,267.78,512,256,512z"/>
<path style="fill:#7AA937;" d="M356.054,0H228.053c-50.976,0-92.445,41.469-92.445,92.445v56.889c0,4.251,1.259,8.202,3.401,11.529
	l117.489-75.529L373.987,9.806C370.189,3.913,363.583,0,356.054,0z"/>
<path style="fill:#5D802B;" d="M377.387,21.333c0-4.251-1.259-8.202-3.401-11.529L256.498,85.334l117.489,75.528
	c2.142-3.327,3.401-7.276,3.401-11.527V21.333z"/>
<path style="fill:#668E2F;" d="M139.007,160.863c3.797,5.892,10.404,9.805,17.933,9.805h199.112c7.531,0,14.136-3.913,17.933-9.806
	L256.498,85.334L139.007,160.863z"/>
</svg>