<?xml version="1.0" encoding="iso-8859-1"?>
<!-- Uploaded to: SVG Repo, www.svgrepo.com, Generator: SVG Repo Mixer Tools -->
<svg version="1.1" id="Layer_1" xmlns="http://www.w3.org/2000/svg" xmlns:xlink="http://www.w3.org/1999/xlink" 
	 viewBox="0 0 504.239 504.239" xml:space="preserve">
<circle style="fill:#D8D6CB;" cx="173.662" cy="335.324" r="168"/>
<path style="fill:#CCCAB6;" d="M292.062,216.124c65.6,65.6,65.6,172,0,237.6s-172,65.6-237.6,0"/>
<g>
	<path style="fill:#CE3838;" d="M41.662,231.324c24.8,28,40,64,40,104s-15.2,76-40,104c4.8,6.4,10.4,12,16,17.6
		c29.6-32,47.2-75.2,47.2-121.6s-18.4-89.6-47.2-121.6C52.062,219.324,46.462,224.924,41.662,231.324z"/>
	<path style="fill:#CE3838;" d="M265.662,335.324c0-40,15.2-76,40-104c-4.8-6.4-10.4-12-16-17.6c-29.6,32-47.2,75.2-47.2,121.6
		c0,45.6,16.8,88,48,121.6c5.6-5.6,11.2-11.2,16-17.6C279.262,410.524,265.662,373.724,265.662,335.324z"/>
</g>
<g>
	<path style="fill:#A31A1A;" d="M81.662,335.324c0,40-15.2,76-40,104c4.8,6.4,10.4,12,16,17.6c29.6-32,47.2-75.2,47.2-121.6"/>
	<path style="fill:#A31A1A;" d="M241.662,335.324c0,45.6,16.8,88,48,121.6c5.6-5.6,11.2-11.2,16-17.6c-25.6-28.8-40-64.8-40-104"/>
	<path style="fill:#A31A1A;" d="M100.062,252.124c0,4.8-3.2,8-8,8h-32c-4.8,0-8-3.2-8-8l0,0c0-4.8,3.2-8,8-8h32
		C96.862,244.124,100.062,247.324,100.062,252.124L100.062,252.124z"/>
</g>
<path style="fill:#CE3838;" d="M100.062,420.124c0,4.8-3.2,8-8,8h-32c-4.8,0-8-3.2-8-8l0,0c0-4.8,3.2-8,8-8h32
	C96.862,412.124,100.062,415.324,100.062,420.124L100.062,420.124z"/>
<g>
	<path style="fill:#A31A1A;" d="M116.062,332.124c0,4.8-3.2,8-8,8h-32c-4.8,0-8-3.2-8-8l0,0c0-4.8,3.2-8,8-8h32
		C112.862,324.124,116.062,327.324,116.062,332.124L116.062,332.124z"/>
	<path style="fill:#A31A1A;" d="M292.062,252.124c0-4.8-3.2-8-8-8h-32c-4.8,0-8,3.2-8,8l0,0c0,4.8,3.2,8,8,8h32
		C288.862,260.124,292.062,256.924,292.062,252.124L292.062,252.124z"/>
</g>
<path style="fill:#CE3838;" d="M292.062,420.124c0-4.8-3.2-8-8-8h-32c-4.8,0-8,3.2-8,8l0,0c0,4.8,3.2,8,8,8h32
	C288.862,428.124,292.062,424.924,292.062,420.124L292.062,420.124z"/>
<path style="fill:#A31A1A;" d="M276.062,332.124c0-4.8-3.2-8-8-8h-32c-4.8,0-8,3.2-8,8l0,0c0,4.8,3.2,8,8,8h32
	C272.862,340.124,276.062,336.924,276.062,332.124L276.062,332.124z"/>
<path style="fill:#6965A8;" d="M481.662,460.124c3.2,8-0.8,16.8-8.8,20l0,0c-8,3.2-16.8-0.8-20-8.8l-52-131.2
	c-3.2-8,0.8-16.8,8.8-20l0,0c8-3.2,16.8,0.8,20,8.8L481.662,460.124z"/>
<path style="fill:#515191;" d="M409.662,320.124L409.662,320.124c8-3.2,16.8,0.8,20,8.8l52,131.2c3.2,8-0.8,16.8-8.8,20l0,0"/>
<path style="fill:#EAAD34;" d="M431.262,319.324c9.6,23.2,20.8,40.8-2.4,49.6l0,0c-23.2,9.6-26.4-11.2-36-34.4l-135.2-272
	c-9.6-23.2,2.4-49.6,25.6-59.2l0,0c23.2-9.6,49.6,2.4,59.2,25.6L431.262,319.324z"/>
<path style="fill:#D89621;" d="M283.262,3.324L283.262,3.324c23.2-9.6,49.6,2.4,59.2,25.6l88.8,290.4c9.6,23.2,20.8,40.8-2.4,49.6
	l0,0"/>
<path style="fill:#EAAD34;" d="M467.262,457.724c12-4.8,24.8,0.8,29.6,12.8l0,0c4.8,12-0.8,24.8-12.8,29.6l-5.6,2.4
	c-12,4.8-24.8-0.8-29.6-12.8l0,0c-4.8-12,0.8-24.8,12.8-29.6L467.262,457.724z"/>
<path style="fill:#D89621;" d="M461.662,460.124l5.6-2.4c12-4.8,24.8,0.8,29.6,12.8l0,0c4.8,12-0.8,24.8-12.8,29.6"/>
<g>
	
		<rect x="421.672" y="382.527" transform="matrix(-0.9291 0.3699 -0.3699 -0.9291 980.9866 580.1551)" style="fill:#ACACE2;" width="26.401" height="3.2"/>
	
		<rect x="430.617" y="403.979" transform="matrix(-0.9289 0.3704 -0.3704 -0.9289 1006.2919 617.9255)" style="fill:#ACACE2;" width="26.401" height="3.2"/>
	
		<rect x="438.473" y="424.998" transform="matrix(-0.9292 0.3696 -0.3696 -0.9292 1029.0344 656.053)" style="fill:#ACACE2;" width="26.4" height="3.2"/>
	
		<rect x="447.408" y="446.421" transform="matrix(-0.9289 0.3704 -0.3704 -0.9289 1054.399 693.573)" style="fill:#ACACE2;" width="26.401" height="3.2"/>
</g>
<polygon style="fill:#029B40;" points="318.462,184.124 362.462,272.924 411.262,253.724 382.462,158.524 "/>
<polyline style="fill:#057F37;" points="411.262,253.724 382.462,158.524 318.462,184.124 "/>
</svg>