<?xml version="1.0" ?>
<!-- Uploaded to: SVG Repo, www.svgrepo.com, Generator: SVG Repo Mixer Tools -->
<svg width="800px" height="800px" viewBox="0 0 512 512" id="Layer_1" version="1.1" xml:space="preserve" xmlns="http://www.w3.org/2000/svg" xmlns:xlink="http://www.w3.org/1999/xlink">
<style type="text/css">
	.st0{fill:#0A557F;}
	.st1{fill:#CFF1FF;}
	.st2{fill:#4CC3F2;}
	.st3{fill:#FFFFFF;}
</style>
<g>
<rect class="st0" height="15" width="67.3" x="322.5" y="418.3"/>
<rect class="st0" height="15" width="15" x="292.5" y="418.3"/>
<rect class="st0" height="15" width="67.3" x="137.5" y="78.7"/>
<rect class="st0" height="15" width="15" x="107.5" y="78.7"/>
<rect class="st1" height="15" transform="matrix(0.9659 -0.2588 0.2588 0.9659 -20.6992 127.1069)" width="26.3" x="459.2" y="134.7"/>
<path class="st1" d="M255.4,108.7c11,0,21.4,4.2,29.3,11.7c6.7,6.4,11,14.5,12.6,23.3h-83.9C217.1,123.8,234.5,108.7,255.4,108.7z"/>
<polygon class="st2" points="176.6,188.7 233.4,188.7 233.4,188.7 233.8,188.7 233.8,173.7 180.9,173.7 185.2,158.7 325.1,158.7    338,203.6 172.3,203.6  "/>
<path class="st2" d="M110,218.6h290.4l4.4,15.3H278.6v15h130.5l4.2,14.6c-82.8,0-233.8,0-316.3,0L110,218.6z"/>
<path class="st1" d="M175.5,373.3h-49.2c3.3-5.1,5.3-11.2,5.3-17.8c0-6.6-1.9-12.7-5.3-17.8h49.2c-3.3,5.1-5.3,11.2-5.3,17.8   C170.2,362.1,172.1,368.2,175.5,373.3z"/>
<path class="st1" d="M279.8,373.3h-49.3c3.3-5.1,5.3-11.2,5.3-17.8c0-6.6-1.9-12.7-5.3-17.8h49.3c-3.3,5.1-5.3,11.2-5.3,17.8   C274.5,362.1,276.4,368.2,279.8,373.3z"/>
<path class="st1" d="M384.1,373.3h-49.3c3.3-5.1,5.3-11.2,5.3-17.8c0-6.6-1.9-12.7-5.3-17.8h49.3c-3.3,5.1-5.3,11.2-5.3,17.8   C378.8,362.1,380.7,368.2,384.1,373.3z"/>
<path class="st2" d="M443.7,348.6c-3.2-14.8-16.3-25.9-32.1-25.9H98.7c-15.7,0-28.9,11.1-32.1,25.9l-20.3-20.3   c6.1-1.3,11.8-4.3,16.3-8.9c6.2-6.2,9.6-14.4,9.6-23.2c0-6.4-1.8-12.5-5.2-17.8h376.3c-2.7,4.1-4.4,8.8-5,13.7h-311v15h312.6   c1.6,4.6,4.2,8.8,7.7,12.3c4.5,4.5,10.2,7.6,16.3,8.9L443.7,348.6z"/>
<path class="st0" d="M471.4,263.5c0,0-16.3,0-42.5,0l-17.3-59.9h-58l-5.8-20.3l99.4-26.6l3.9,14.5l54.3-14.6l-11.6-43.4l-54.3,14.6   l3.9,14.5l-99.6,26.7l-7.3-25.2h-23.8c-1.7-13-7.8-25-17.5-34.2c-10.8-10.2-24.8-15.8-39.7-15.8c-29.2,0-53.4,21.8-57.1,50h-24.4   l-17.3,59.9h-58l-17.3,59.9c-25.9,0-42,0-42,0c-8.8,0-17,3.4-23.2,9.6c-6.2,6.2-9.6,14.4-9.6,23.2s3.4,17,9.6,23.2l59.2,59.2l0,0   c5.9,5.9,14.1,9.6,23.2,9.6h312.9c9,0,17.2-3.7,23.2-9.6l0,0l59.2-59.2c0,0,0,0,0,0c6.2-6.2,9.6-14.4,9.6-23.2   c0-8.8-3.4-17-9.6-23.2C488,267.1,480,263.7,471.4,263.5z M483.1,131.5L487,146l-25.4,6.8l-3.9-14.5L483.1,131.5z M255.4,108.7   c11,0,21.4,4.2,29.3,11.7c6.7,6.4,11,14.5,12.6,23.3h-83.9C217.1,123.8,234.5,108.7,255.4,108.7z M176.6,188.7h56.8v0h0.3v-15   l-52.9,0l4.3-14.9h139.8l12.9,44.9H172.3L176.6,188.7z M110,218.6h290.4l4.4,15.3H278.6v15h130.5l4.2,14.6c-82.8,0-233.8,0-316.3,0   L110,218.6z M26.9,308.9c-3.4-3.4-5.2-7.8-5.2-12.6c0-4.8,1.8-9.2,5.2-12.6c3.4-3.4,7.8-5.2,12.6-5.2s9.2,1.8,12.6,5.2   c3.4,3.4,5.2,7.8,5.2,12.6c0,4.8-1.8,9.2-5.2,12.6c-3.4,3.4-7.8,5.2-12.6,5.2C34.7,314.1,30.2,312.2,26.9,308.9z M98.7,373.3   c-9.8,0-17.8-8-17.8-17.8s8-17.8,17.8-17.8c9.8,0,17.8,8,17.8,17.8S108.5,373.3,98.7,373.3z M175.5,373.3h-49.2   c3.3-5.1,5.3-11.2,5.3-17.8s-1.9-12.7-5.3-17.8h49.2c-3.3,5.1-5.3,11.2-5.3,17.8S172.1,368.2,175.5,373.3z M203,373.3   c-9.8,0-17.8-8-17.8-17.8s8-17.8,17.8-17.8c9.8,0,17.8,8,17.8,17.8S212.8,373.3,203,373.3z M279.8,373.3h-49.3   c3.3-5.1,5.3-11.2,5.3-17.8s-1.9-12.7-5.3-17.8h49.3c-3.3,5.1-5.3,11.2-5.3,17.8S276.4,368.2,279.8,373.3z M307.3,373.3   c-9.8,0-17.8-8-17.8-17.8s8-17.8,17.8-17.8s17.8,8,17.8,17.8S317.1,373.3,307.3,373.3z M384.1,373.3h-49.3   c3.3-5.1,5.3-11.2,5.3-17.8s-1.9-12.7-5.3-17.8h49.3c-3.3,5.1-5.3,11.2-5.3,17.8S380.7,368.2,384.1,373.3z M411.6,373.3   c-9.8,0-17.8-8-17.8-17.8s8-17.8,17.8-17.8c9.8,0,17.8,8,17.8,17.8S421.4,373.3,411.6,373.3z M443.7,348.6   c-3.2-14.8-16.3-25.9-32.1-25.9H98.7c-15.7,0-28.9,11.1-32.1,25.9l-20.3-20.3c6.1-1.3,11.8-4.3,16.3-8.9c6.2-6.2,9.6-14.4,9.6-23.2   c0-6.4-1.8-12.5-5.2-17.8h376.3c-2.7,4.1-4.4,8.8-5,13.7h-311v15h312.6c1.6,4.6,4.2,8.8,7.7,12.3c4.5,4.5,10.2,7.6,16.3,8.9   L443.7,348.6z M483.4,308.9c-3.4,3.4-7.8,5.2-12.6,5.2c-4.8,0-9.2-1.8-12.6-5.2c-3.4-3.4-5.2-7.8-5.2-12.6c0-4.8,1.8-9.2,5.2-12.6   c3.4-3.4,7.8-5.2,12.6-5.2c4.8,0,9.2,1.8,12.6,5.2c3.4,3.4,5.2,7.8,5.2,12.6C488.6,301.1,486.8,305.5,483.4,308.9z"/>
<rect class="st3" height="15" width="15" x="248.6" y="233.9"/>
<rect class="st3" height="15" width="15" x="248.8" y="173.7"/>
<rect class="st3" height="15" width="15" x="97.3" y="292.2"/>
</g>
</svg>