<?xml version="1.0" ?>
<!-- Uploaded to: SVG Repo, www.svgrepo.com, Generator: SVG Repo Mixer Tools -->
<svg width="800px" height="800px" viewBox="0 0 512 512" xmlns="http://www.w3.org/2000/svg">
<defs>
<style>.e{fill:#f4c762;}.f{fill:#eab84b;}.g{fill:#f4f4f4;}.h{fill:#f2c34e;}.i{fill:#ffd892;}.j{fill:#8c8c8c;}.k{fill:#dfdfdf;}.l{fill:#41a08e;}.m{fill:#349381;}.n{fill:#365650;}.o{fill:#6e6e6e;}.p{fill:#75bbad;}</style>
</defs>
<g id="a"/>
<g id="b"/>
<g id="c">
<g>
<path class="k" d="M382.31079,279.1554l-30.31079-15.1554h0c10.43286-15.64917,16-34.03638,16-52.84448v-27.15552h-24c-13.25488,0-24,10.74512-24,24v3.15552c0,18.80811,5.56714,37.19531,16,52.84448h0l-30.31079,15.1554c-10.84106,5.42053-17.68921,16.50098-17.68921,28.6217v76.2229h112v-76.2229c0-12.12073-6.84814-23.20117-17.68921-28.6217Z"/>
<path class="k" d="M206.31079,279.1554l-30.31079-15.1554h0c10.43286-15.64917,16-34.03638,16-52.84448v-27.15552h-24c-13.25488,0-24,10.74512-24,24v3.15552c0,18.80811,5.56714,37.19531,16,52.84448h0l-30.31079,15.1554c-10.84106,5.42053-17.68921,16.50098-17.68921,28.6217v68.2229h112v-68.2229c0-12.12073-6.84814-23.20117-17.68921-28.6217Z"/>
<path class="k" d="M302.31079,279.1554l-30.31079-15.1554h0c10.24463-10.24463,16-24.1394,16-38.62744v-41.37256h-32c-17.6731,0-32,14.3269-32,32v9.37256c0,14.48804,5.75537,28.38281,16,38.62744h0l-30.31079,15.1554c-10.84106,5.42053-17.68921,16.50098-17.68921,28.6217v52.2229h128v-52.2229c0-12.12073-6.84814-23.20117-17.68921-28.6217Z"/>
<path class="f" d="M224,216l64-8v-24h-32c-17.6731,0-32,14.3269-32,32Z"/>
<path class="k" d="M134.31079,263.1554l-30.31079-15.1554h0c10.43286-15.64917,16-34.03638,16-52.84448v-43.15552h-32c-17.6731,0-32,14.3269-32,32v11.15564c0,18.80798,5.56714,37.19519,16,52.84436h0l-30.31079,15.1554c-10.84106,5.42053-17.68921,16.50098-17.68921,28.6217v108.2229c0,8.83655,7.16345,16,16,16h8v80h80v-80h8c8.83655,0,16-7.16345,16-16v-108.2229c0-12.12073-6.84814-23.20117-17.68921-28.6217Z"/>
<path class="l" d="M134.31079,263.1554l-30.31079-15.1554-16,16-16-16-30.31079,15.1554c-10.84106,5.42053-17.68921,16.50098-17.68921,28.6217v92.2229h24v8h80v-8h24v-92.2229c0-12.12073-6.84814-23.20117-17.68921-28.6217Z"/>
<polygon class="p" points="88 264 112 288 130 261 104 248 88 264"/>
<polygon class="h" points="96 272 88 264 80 272 72 352 88 368 104 352 96 272"/>
<polygon class="p" points="88 264 64 288 46 261 72 248 88 264"/>
<rect class="j" height="104" width="80" x="48" y="392"/>
<rect class="o" height="72" width="8" x="84" y="424"/>
<path class="f" d="M56,191.99997l64-15.99997v-24h-32c-17.67311,0-32,14.32689-32,32v7.99997Z"/>
<path class="k" d="M470.31079,263.1554l-30.31079-15.1554h0c10.43286-15.64917,16-34.03638,16-52.84448v-43.15552h-32c-17.6731,0-32,14.3269-32,32v11.15564c0,18.80798,5.56714,37.19519,16,52.84436h0l-30.31079,15.1554c-10.84106,5.42053-17.68921,16.50098-17.68921,28.6217v108.2229c0,8.83655,7.16345,16,16,16h8v80h80v-80h8c8.83655,0,16-7.16345,16-16v-108.2229c0-12.12073-6.84814-23.20117-17.68921-28.6217Z"/>
<path class="l" d="M470.31079,263.1554l-30.31079-15.1554-16,16-16-16-30.31079,15.1554c-10.84106,5.42053-17.68921,16.50098-17.68921,28.6217v92.2229h24v8h80v-8h24v-92.2229c0-12.12073-6.84814-23.20117-17.68921-28.6217Z"/>
<polygon class="p" points="424 264 448 288 466 261 440 248 424 264"/>
<polygon class="h" points="432 272 424 264 416 272 408 352 424 368 440 352 432 272"/>
<polygon class="p" points="424 264 400 288 382 261 408 248 424 264"/>
<rect class="j" height="104" width="80" x="384" y="392"/>
<rect class="f" height="32" width="176" x="168" y="360"/>
<rect class="e" height="104" width="160" x="176" y="392"/>
<rect class="i" height="80" width="112" x="200" y="416"/>
<rect class="o" height="72" width="8" x="420" y="424"/>
<rect class="m" height="72" width="8" x="124" y="312"/>
<rect class="m" height="72" width="8" x="44" y="312"/>
<path class="l" d="M320,307.7771c0-12.12073-6.84814-23.20117-17.68921-28.6217l-30.31079-15.1554-16,16-16-16-30.31079,15.1554c-10.84106,5.42053-17.68921,16.50098-17.68921,28.6217v52.2229h128v-52.2229Z"/>
<polygon class="p" points="256 280 280 304 298 277 272 264 256 280"/>
<polygon class="p" points="214 277 232 304 256 280 240 264 214 277"/>
<path class="l" d="M256.02539,24c-39.77856,0-72.02539,32.24683-72.02539,72.02539s32.24683,72.02527,72.02539,72.02527,72.02527-32.24683,72.02527-72.02527-32.24683-72.02539-72.02527-72.02539Zm-54.01904,72.02539c0-26.76636,19.46729-48.98584,45.01562-53.27222l.00024,44.26904-37.12695,37.12622c-5.00488-8.19189-7.88892-17.82068-7.88892-28.12305Zm20.58862,42.43469l24.42725-24.42834,.00537,35.2666c-9.12244-1.52954-17.46973-5.34534-24.43262-10.83826Zm42.43359,10.83728v-35.26575l24.42737,24.42822c-6.96155,5.49182-15.30688,9.3075-24.42737,10.83752Zm37.12695-25.14893l-37.12695-37.12622-.0094-44.27051c25.55298,4.28223,45.02515,26.50391,45.02515,53.27368,0,10.30225-2.88403,19.93115-7.88879,28.12305Z"/>
<path class="f" d="M392,191.99997l64-15.99997v-24h-32c-17.67311,0-32,14.32689-32,32v7.99997Z"/>
<rect class="m" height="72" width="8" x="460" y="312"/>
<rect class="m" height="72" width="8" x="380" y="312"/>
<polygon class="h" points="264 288 256 280 248 288 240.8 360 271.19996 360 264 288"/>
<polygon class="g" points="264 328 224 360 288 360 264 328"/>
<path class="n" d="M472.1001,259.57764l-26.3501-13.1748c9.33691-15.47314,14.25-33.09473,14.25-51.24707v-43.15576c0-2.20898-1.79102-4-4-4h-32c-19.85059,0-36,16.14941-36,36v11.15576c0,18.15234,4.91309,35.77393,14.25,51.24707l-26.3501,13.1748c-3.67432,1.83716-6.92114,4.2395-9.6825,7.05872l-8.46741-4.23352c9.33691-15.47314,14.25-33.09473,14.25-51.24707v-27.15576c0-2.20898-1.79102-4-4-4h-24c-15.43945,0-28,12.56055-28,28v3.15576c0,18.15234,4.91309,35.77393,14.25,51.24707l-26.25024,13.12488-25.48267-12.74109c8.73145-10.49756,13.48291-23.59033,13.48291-37.41406v-41.37256c0-2.20898-1.79102-4-4-4h-32c-19.85059,0-36,16.14941-36,36v9.37256c0,13.82373,4.75146,26.9165,13.48291,37.41406l-25.48291,12.74097-26.25-13.12476c9.33691-15.47314,14.25-33.09473,14.25-51.24707v-27.15576c0-2.20898-1.79102-4-4-4h-24c-15.43945,0-28,12.56055-28,28v3.15576c0,18.15234,4.91309,35.77393,14.25,51.24707l-8.46729,4.23364c-2.76123-2.81934-6.0083-5.22156-9.68262-7.05884l-26.3501-13.1748c9.33691-15.47314,14.25-33.09473,14.25-51.24707v-43.15576c0-2.20898-1.79102-4-4-4h-32c-19.85059,0-36,16.14941-36,36v11.15576c0,18.15234,4.91309,35.77393,14.25,51.24707l-26.3501,13.1748c-12.2749,6.1377-19.8999,18.47607-19.8999,32.19922v108.22314c0,11.02783,8.97217,20,20,20h4v76h8v-100H124v100h8v-76h4c11.02783,0,20-8.97217,20-20v-108.22314c0-6.76367-1.85962-13.18652-5.20776-18.70081l10.99683-5.49841c1.02588-.51318,1.78223-1.44189,2.07715-2.55078,.29443-1.10889,.09863-2.29102-.53809-3.24561-10.02783-15.04199-15.32812-32.54834-15.32812-50.62549v-3.15576c0-11.02783,8.97217-20,20-20h20v23.15576c0,18.07715-5.30029,35.5835-15.32812,50.62549-.63672,.95459-.83252,2.13672-.53809,3.24561,.29492,1.10889,1.05127,2.0376,2.07715,2.55078l26.13281,13.06616c-7.75928,6.72961-12.34375,16.50928-12.34375,27.13306v36.22314h8v-36.22314c0-10.67383,5.93066-20.27002,15.47803-25.04395l1.15247-.57617,16.04138,24.06201c.66455,.99707,1.74121,1.64355,2.93408,1.76172,.13184,.01318,.26318,.01953,.39404,.01953,1.05566,0,2.07471-.41797,2.82861-1.17139l8.07642-8.07642-4.45679,44.56641-15.85168,12.6814h-54.59656c-2.20898,0-4,1.79102-4,4v32c0,2.20898,1.79102,4,4,4h4v95.89307c0,2.20898,1.79102,4,4,4h160c2.20898,0,4-1.79102,4-4v-95.89307h4c2.20898,0,4-1.79102,4-4v-32c0-2.20898-1.79102-4-4-4h-53.99988l-17.51599-23.35461-3.38916-33.89319,8.07642,8.07642c.75391,.75342,1.77295,1.17139,2.82861,1.17139,.13086,0,.2627-.00635,.39404-.01953,1.19287-.11816,2.26953-.76465,2.93408-1.76172l16.04138-24.06201,1.15247,.57617c9.54736,4.77393,15.47803,14.37012,15.47803,25.04395v36.22314h8v-36.22314c0-10.62378-4.58447-20.40332-12.34387-27.13306l26.13293-13.06616c1.02588-.51318,1.78223-1.44189,2.07715-2.55078,.29443-1.10889,.09863-2.29102-.53809-3.24561-10.02783-15.04199-15.32812-32.54834-15.32812-50.62549v-3.15576c0-11.02783,8.97217-20,20-20h20v23.15576c0,18.07715-5.30029,35.5835-15.32812,50.62549-.63672,.95459-.83252,2.13672-.53809,3.24561,.29492,1.10889,1.05127,2.0376,2.07764,2.55078l10.99658,5.49805c-3.34839,5.5144-5.20801,11.9375-5.20801,18.70117v108.22314c0,11.02783,8.97217,20,20,20h4v76h8v-100h72v100h8v-76h4c11.02783,0,20-8.97217,20-20v-108.22314c0-13.72314-7.625-26.06152-19.8999-32.19922Zm-347.94153,2.97363l-12.78015,19.17041-17.72119-17.72168,11.13281-11.13281,19.36853,9.68408Zm-24.32751,87.96045l-11.83105,11.83154-11.83105-11.83154,7.66895-76.69238,4.16211-4.16211,4.16211,4.16211,7.66895,76.69238Zm-11.83105-194.51172h28v16.87708l-56,14v-2.87708c0-15.43945,12.56055-28,28-28Zm-28,39.15576v-.03284l56-14v14.03284c0,17.95544-5.23438,35.34497-15.13159,50.3186l-12.86841,12.8689-12.86841-12.8689c-9.89722-14.97363-15.13159-32.36316-15.13159-50.3186Zm11.20996,57.71143l11.13281,11.13281-17.72119,17.72119-12.77991-19.17004,19.36829-9.68396Zm-31.20996,159.13281c-6.6167,0-12-5.3833-12-12v-12h16v24h-4Zm12-24v-76h-8v68H28v-88.22314c0-10.67383,5.93066-20.27002,15.47803-25.04395l1.15271-.57642,16.04114,24.06226c.66455,.99707,1.74121,1.64355,2.93408,1.76172,.13184,.01318,.26318,.01953,.39453,.01953,1.05518,0,2.07422-.41797,2.82812-1.17139l8.07642-8.07642-6.88501,68.84985c-.11963,1.19385,.30322,2.37793,1.15137,3.22656l16,16c.78125,.78076,1.80469,1.17139,2.82861,1.17139s2.04736-.39062,2.82861-1.17139l16-16c.84814-.84863,1.271-2.03271,1.15137-3.22656l-6.88501-68.84985,8.07642,8.07642c.75391,.75342,1.77295,1.17139,2.82861,1.17139,.13086,0,.2627-.00635,.39404-.01953,1.19287-.11816,2.26953-.76465,2.93408-1.76172l16.04138-24.06201,1.15247,.57617c9.54736,4.77393,15.47803,14.37012,15.47803,25.04395v88.22314h-16v-68h-8v76H52Zm84,24h-4v-24h16v12c0,6.6167-5.3833,12-12,12Zm120-224h28v16.46875l-55.61938,6.95239c2.19238-13.26807,13.7395-23.42114,27.61938-23.42114Zm-28,37.37256v-5.84131l56-7v12.84131c0,13.52295-5.26611,26.23682-14.82861,35.79883l-13.17139,13.17188-13.17139-13.17188c-9.5625-9.56201-14.82861-22.27588-14.82861-35.79883Zm4.62158,72.34912l-12.78015-19.17041,19.36853-9.68408,11.13281,11.13281-17.72119,17.72168Zm75.37842,190.17139h-104v-67.89307h104v67.89307Zm24,0h-16v-71.89307c0-2.20898-1.79102-4-4-4h-112c-2.20898,0-4,1.79102-4,4v71.89307h-16v-91.89307h152v91.89307Zm8-99.89307H172v-24h168v24Zm-104.59656-32l27.87292-22.29834,16.72363,22.29834h-44.59656Zm28.17993-31.96716c-.75452,.07959-1.47974,.36169-2.0824,.84363l-14.31409,11.45129,4.651-46.50842,4.16211-4.16211,4.16211,4.16211,3.42126,34.2135Zm15.79504-26.31116l-17.72119-17.72168,11.13281-11.13281,19.36853,9.68408-12.78015,19.17041Zm180.78015-35.17041l-12.78015,19.17041-17.72119-17.72168,11.13281-11.13281,19.36853,9.68408Zm-24.32751,87.96045l-11.83105,11.83154-11.83105-11.83154,7.66895-76.69238,4.16211-4.16211,4.16211,4.16211,7.66895,76.69238Zm-11.83105-194.51172h28v16.87708l-56,14v-2.87708c0-15.43945,12.56055-28,28-28Zm-28,39.15576v-.03284l56-14v14.03284c0,17.95544-5.23438,35.34497-15.13159,50.3186l-12.86841,12.8689-12.86841-12.8689c-9.89722-14.97363-15.13159-32.36316-15.13159-50.3186Zm11.20996,57.71143l11.13281,11.13281-17.72119,17.72168-12.78015-19.17041,19.36853-9.68408Zm-31.20996,159.13281c-6.6167,0-12-5.3833-12-12v-12h16v24h-4Zm12-24v-76h-8v68h-16v-88.22314c0-10.67383,5.93066-20.27002,15.47803-25.04395l1.15247-.57617,16.04138,24.06201c.66455,.99707,1.74121,1.64355,2.93408,1.76172,.13184,.01318,.26318,.01953,.39404,.01953,1.05566,0,2.07471-.41797,2.82861-1.17139l8.07642-8.07642-6.88501,68.84985c-.11963,1.19385,.30322,2.37793,1.15137,3.22656l16,16c.78125,.78076,1.80469,1.17139,2.82861,1.17139s2.04736-.39062,2.82861-1.17139l16-16c.84814-.84863,1.271-2.03271,1.15137-3.22656l-6.88501-68.84985,8.07642,8.07642c.75391,.75342,1.77295,1.17139,2.82861,1.17139,.13086,0,.2627-.00635,.39404-.01953,1.19287-.11816,2.26953-.76465,2.93408-1.76172l16.04138-24.06201,1.15247,.57617c9.54736,4.77393,15.47803,14.37012,15.47803,25.04395v88.22314h-16v-68h-8v76h-72Zm84,24h-4v-24h16v12c0,6.6167-5.3833,12-12,12Z"/>
<rect class="n" height="72" width="8" x="420" y="424"/>
<rect class="n" height="72" width="8" x="84" y="424"/>
<path class="n" d="M256.02539,172.05078c41.92041,0,76.02539-34.10498,76.02539-76.02539s-34.10498-76.02539-76.02539-76.02539-76.02539,34.10498-76.02539,76.02539,34.10498,76.02539,76.02539,76.02539Zm0-144.05078c37.50928,0,68.02539,30.51611,68.02539,68.02539s-30.51611,68.02539-68.02539,68.02539-68.02539-30.51611-68.02539-68.02539,30.51611-68.02539,68.02539-68.02539Z"/>
<path class="n" d="M209.896,128.14844c1.0542,0,2.07324-.41699,2.82812-1.17139l37.12646-37.12646c.75-.75049,1.17139-1.76758,1.17139-2.82861V42.75342c0-1.17676-.51807-2.29346-1.41602-3.05322s-2.08691-1.08789-3.24561-.8916c-28.01807,4.7002-48.354,28.76367-48.354,57.2168,0,10.68652,2.93066,21.13281,8.47559,30.2085,.63965,1.04639,1.72314,1.7417,2.94092,1.88672,.15771,.01855,.31592,.02783,.47314,.02783Zm-3.88965-32.12305c0-22.92236,15.3042-42.53955,37.01562-48.31836v37.6582l-32.16748,32.16748c-3.18359-6.68262-4.84814-14.02539-4.84814-21.50732Z"/>
<path class="n" d="M262.19971,89.85059l37.12695,37.12646c.75488,.75439,1.77393,1.17139,2.82812,1.17139,.15723,0,.31543-.00928,.47314-.02783,1.21777-.14502,2.30127-.84033,2.94092-1.88672,5.54492-9.07568,8.47559-19.52197,8.47559-30.2085,0-28.45801-20.34033-52.52197-48.36426-57.21875-1.16162-.19678-2.34814,.13184-3.24561,.8916-.89795,.76025-1.41602,1.87744-1.41553,3.0542l.00928,44.27051c0,1.06055,.42188,2.07764,1.17139,2.82764Zm43.84473,6.1748c0,7.48193-1.66504,14.82471-4.84814,21.50732l-32.16846-32.16797-.00781-37.66064c21.71631,5.77686,37.02441,25.39502,37.02441,48.32129Z"/>
<path class="n" d="M248.55225,110.33594c-1.49463-.61816-3.21582-.27637-4.35889,.86768l-24.42676,24.42822c-.80762,.80762-1.23145,1.92236-1.16455,3.06299s.61865,2.19775,1.51562,2.90527c7.62646,6.01709,16.70312,10.04297,26.24902,11.64307,.22021,.03711,.44092,.05518,.66113,.05518,.93896,0,1.85693-.33105,2.58447-.94678,.89795-.76025,1.41553-1.87744,1.41553-3.05371l-.00586-35.2666c-.00049-1.61816-.9751-3.07617-2.46973-3.69531Zm-19.80029,27.62354l14.27148-14.27197,.00342,20.6499c-5.05029-1.35986-9.87891-3.5166-14.2749-6.37793Z"/>
<path class="n" d="M267.85693,111.20312c-1.14453-1.14355-2.86377-1.48633-4.35938-.8667-1.49463,.61914-2.46924,2.07764-2.46924,3.69531l.00049,35.26562c0,1.17676,.51807,2.29346,1.41602,3.05371,.72754,.61523,1.64502,.94629,2.58398,.94629,.22021,0,.44141-.01807,.66211-.05518,9.54346-1.60107,18.61816-5.62695,26.24268-11.6416,.89697-.70801,1.44824-1.76514,1.51562-2.90576,.06689-1.14062-.35693-2.25537-1.16455-3.06348l-24.42773-24.42822Zm1.17188,33.13281l-.00049-20.64697,14.27051,14.27051c-4.39453,2.85986-9.22119,5.0166-14.27002,6.37646Z"/>
</g>
</g>
<g id="d"/>
</svg>