<?xml version="1.0" encoding="iso-8859-1"?>
<!-- Uploaded to: SVG Repo, www.svgrepo.com, Generator: SVG Repo Mixer Tools -->
<svg height="800px" width="800px" version="1.1" id="Capa_1" xmlns="http://www.w3.org/2000/svg" xmlns:xlink="http://www.w3.org/1999/xlink" 
	 viewBox="0 0 470.007 470.007" xml:space="preserve">
<g>
	<path style="fill:#FFD085;" d="M341.101,176.296l-8.52-45H191.215c-4.142,0-7.5-3.358-7.5-7.5c0-0.003-15-0.003-15-0.003
		c0,4.145-3.358,7.503-7.5,7.503h-23.787l-8.52,45H341.101z"/>
	<path style="fill:#FF7633;" d="M391.974,191.296h-41.932c-0.011,0-230.147,0-230.147,0c-0.064,0-41.861,0-41.861,0
		c34.325,16.018,87.132,32.95,156.97,32.95S357.649,207.314,391.974,191.296z"/>
	<path style="fill:#FF7633;" d="M191.215,116.296h138.526l-13.229-69.871c-1.917-10.127-7.664-18.901-16.181-24.707
		c-8.517-5.805-18.784-7.947-28.913-6.029c-13.581,2.571-24.817,12.308-29.322,25.41c-1.041,3.028-3.89,5.062-7.092,5.062
		s-6.051-2.033-7.092-5.062c-4.505-13.102-15.741-22.838-29.322-25.41c-10.129-1.918-20.396,0.224-28.913,6.029
		c-8.517,5.806-14.263,14.58-16.181,24.707l-13.229,69.871h20.947c4.141,0,7.498,3.356,7.5,7.497h15
		C183.717,119.652,187.074,116.296,191.215,116.296z"/>
	<path style="fill:#FFB033;" d="M329.51,332.713c-3.186,7.423-6.892,15.59-11.107,24.196c2.943,4.786,6.491,9.281,10.602,13.393
		c12.116,12.115,27.82,19.361,42.305,19.806c-0.444-14.485-7.69-30.189-19.806-42.305
		C344.968,341.268,337.46,336.134,329.51,332.713z"/>
	<path style="fill:#FFD085;" d="M128.499,332.713c-7.95,3.421-15.458,8.554-21.994,15.09c-12.115,12.116-19.361,27.82-19.806,42.305
		c14.486-0.443,30.188-7.689,42.305-19.806c4.111-4.111,7.659-8.607,10.602-13.393C135.391,348.303,131.685,340.136,128.499,332.713
		z"/>
	<path style="fill:#FFD085;" d="M282.26,299.245c-2.497,12.346-6.995,32.037-14.06,54.447c-1.008,3.2-3.964,5.247-7.151,5.247
		c-0.747,0-1.506-0.112-2.257-0.349c-0.019-0.006-0.036-0.014-0.054-0.02c-1.551,4.672-3.212,9.439-4.99,14.265
		c0.021,0.008,0.042,0.013,0.063,0.021c3.862,1.498,5.778,5.843,4.28,9.705c-9.964,25.686-21.438,47.977-34.148,66.4
		c1.667,1.421,3.353,2.804,5.06,4.144c53.727-42.188,87.305-125.462,97.58-153.86H282.26z"/>
	<path style="fill:#FFB033;" d="M253.895,349.183c6.328-20.077,10.535-37.888,13.052-49.938H131.424
		c9.202,25.432,37.097,94.871,81.412,139.401c11.555-17.106,22.055-37.753,31.271-61.51c1.489-3.84,5.794-5.754,9.641-4.301
		c1.777-4.826,3.439-9.593,4.99-14.265C254.824,357.303,252.655,353.115,253.895,349.183z"/>
	<path style="fill:#081C1F;" d="M335.233,318.849c5.797-14.626,8.811-24.169,9.028-24.862c0.713-2.277,0.3-4.758-1.113-6.682
		c-1.413-1.923-3.657-3.059-6.044-3.059H120.905c-2.387,0-4.631,1.136-6.044,3.059c-1.413,1.924-1.827,4.405-1.113,6.682
		c0.217,0.694,3.231,10.236,9.028,24.862c-9.769,4.173-18.946,10.417-26.878,18.348c-17.328,17.328-26.242,40.118-23.845,60.963
		c0.398,3.463,3.13,6.196,6.594,6.594c2.241,0.258,4.501,0.385,6.777,0.385c18.901-0.001,38.721-8.764,54.186-24.229
		c2.799-2.799,5.378-5.756,7.743-8.84c23.256,43.666,49.205,76.103,77.238,96.502c1.315,0.957,2.864,1.436,4.413,1.436
		s3.098-0.479,4.413-1.436c28.033-20.398,53.982-52.836,77.238-96.502c2.365,3.084,4.944,6.04,7.743,8.839
		c15.466,15.467,35.283,24.23,54.186,24.229c2.275,0,4.538-0.127,6.777-0.385c3.463-0.398,6.196-3.13,6.594-6.594
		c2.397-20.845-6.517-43.635-23.845-60.963C354.179,329.265,345.002,323.022,335.233,318.849z M329.005,370.302
		c-4.111-4.111-7.659-8.607-10.602-13.393c4.216-8.606,7.921-16.773,11.107-24.196c7.95,3.421,15.458,8.554,21.994,15.09
		c12.115,12.116,19.361,27.82,19.806,42.305C356.825,389.664,341.121,382.417,329.005,370.302z M229.004,453.105
		c-1.707-1.341-3.394-2.724-5.06-4.144c12.71-18.423,24.184-40.714,34.148-66.4c1.498-3.862-0.418-8.207-4.28-9.705
		c-0.021-0.008-0.042-0.013-0.063-0.021c-3.847-1.454-8.152,0.461-9.641,4.301c-9.216,23.758-19.716,44.404-31.271,61.51
		c-44.315-44.53-72.21-113.97-81.412-139.401h135.522c-2.517,12.049-6.723,29.861-13.052,49.938
		c-1.24,3.932,0.929,8.121,4.844,9.388c0.018,0.006,0.035,0.014,0.054,0.02c0.75,0.237,1.51,0.349,2.257,0.349
		c3.187,0,6.143-2.047,7.151-5.247c7.064-22.411,11.563-42.101,14.06-54.447h44.324
		C316.309,327.643,282.731,410.917,229.004,453.105z M86.699,390.108c0.444-14.485,7.69-30.189,19.806-42.305
		c6.536-6.535,14.044-11.669,21.994-15.09c3.186,7.423,6.892,15.59,11.107,24.196c-2.943,4.786-6.491,9.282-10.602,13.393
		C116.887,382.418,101.185,389.665,86.699,390.108z"/>
	<path style="fill:#081C1F;" d="M467.708,148.436c-2.978-2.872-7.723-2.786-10.601,0.186c-0.15,0.155-12.573,12.84-37.025,27.674
		h-63.714l-10.223-53.997c-0.004-0.023-14.894-78.664-14.894-78.664c-2.663-14.064-10.643-26.25-22.471-34.312
		c-11.828-8.062-26.086-11.034-40.152-8.373c-13.71,2.596-25.697,10.444-33.624,21.522c-7.927-11.078-19.914-18.926-33.624-21.522
		c-14.062-2.662-28.323,0.31-40.151,8.373c-11.828,8.062-19.808,20.248-22.471,34.312l-25.118,132.661H49.927
		c-24.452-14.834-36.876-27.519-37.025-27.674c-2.872-2.977-7.614-3.067-10.597-0.198c-2.985,2.872-3.078,7.619-0.206,10.604
		c0.8,0.832,20.042,20.604,58.512,40.426c35.23,18.152,94.085,39.791,174.393,39.791s139.163-21.639,174.393-39.791
		c38.471-19.821,57.712-39.594,58.512-40.426C470.778,156.047,470.685,151.309,467.708,148.436z M137.427,131.296h23.787
		c4.142,0,7.5-3.358,7.5-7.5c-0.002-4.144-3.359-7.5-7.5-7.5h-20.947l13.229-69.871c1.917-10.127,7.664-18.901,16.181-24.707
		c8.517-5.805,18.784-7.947,28.913-6.029c13.581,2.571,24.817,12.308,29.322,25.41c1.041,3.028,3.89,5.062,7.092,5.062
		s6.051-2.033,7.092-5.062c4.505-13.102,15.741-22.838,29.322-25.41c10.129-1.918,20.396,0.224,28.913,6.029
		c8.517,5.806,14.263,14.58,16.181,24.707l13.229,69.871H191.215c-4.141,0-7.498,3.356-7.5,7.497c0,4.145,3.358,7.503,7.5,7.503
		h141.366l8.52,45H128.907L137.427,131.296z M119.831,191.296c0.064,0,230.201,0,230.201,0c0.011,0,41.943,0,41.943,0
		c-34.325,16.018-87.132,32.95-156.97,32.95s-122.645-16.932-156.97-32.95H119.831z"/>
</g>
</svg>